<svg width="1920" height="800" viewBox="0 0 1920 800" fill="none" xmlns="http://www.w3.org/2000/svg">
<g opacity="0.2" clip-path="url(#clip0_9_6216)">
<path d="M1178.21 370.001L1178.44 383.827L1178.92 393.88C1178.77 407.485 1179.17 426.212 1178.34 439.372C1179.21 449.81 1179.96 460.256 1180.59 470.712C1180.46 476.989 1179.93 486.717 1180.88 492.617C1189.27 518.874 1201.54 570.484 1189.03 595.467L1185.35 594.695C1178.96 599.343 1181.52 603.372 1177.96 608.168L1176.75 608.52L1178.64 607.077L1176.04 604.85L1175.87 603.292C1172.23 573.412 1168.35 593.076 1159.51 569.718C1154.35 571.236 1155.82 570.06 1152.25 573.4C1158.23 591.024 1181.06 620.343 1182.73 630.673L1179.09 635.024C1187.34 650.519 1195.59 670.389 1211.82 677.373C1220.01 678.942 1240.57 683.383 1247.85 683.76C1365.44 710.841 1626.63 751.702 1697.03 623.926C1696.35 575.547 1691.82 548.832 1697.61 498.044C1697.83 489.337 1699.92 472.899 1700.8 463.651C1761.24 503.21 1777.82 545.637 1815.33 602.299C1819.21 608.163 1879.05 631.515 1889.97 636.537C1946.34 662.463 2006.49 678.608 2063.66 702.08C2083.83 710.365 2102.76 728.124 2121.79 738.855C2146.67 751.816 2168.01 764.894 2190.65 781.265C2204.91 791.568 2227.51 815.518 2240.29 822.588C2273.8 841.113 2285.93 847.525 2309.69 880.299C2346.51 931.062 2360.5 994.801 2382.49 1052.77C2402.97 1105.16 2412.32 1126.33 2424.36 1182.82C2431.63 1203.34 2434.31 1226.08 2440.51 1245.82C2451.26 1279.94 2467.5 1310.21 2471.75 1346.6C2475.14 1375.85 2470.31 1429.62 2479.57 1456.23C2509.12 1541.2 2550.54 1526.5 2538.86 1633.45C2608.9 1686.12 2568.22 1707.3 2580.21 1781.52C2584.48 1807.9 2606.02 1825.93 2608.18 1852.71C2611.84 1880.48 2584.35 1896.94 2587.38 1912.21C2594.63 1948.89 2632.82 1940.45 2593.37 1984.57C2599.24 2019.43 2597.98 2027.67 2563.86 2041.75L2552.45 2072.57C2549.78 2088 2549.85 2134.22 2549.4 2152.66C2548.57 2185.84 2544.48 2221.76 2543.8 2254H2510.94H2304.68H2263.49H2261.24H2254.06H2188.88C2189.35 2221.04 2206.4 2150.59 2198.4 2124.59C2173.45 2101.94 2133.94 2116.22 2132.48 2078.43C2132.01 2066.33 2133.53 2054.01 2133.11 2041.79C2087.17 2025.94 2080.3 1992.09 2055.88 1953.22C2045.55 1998.15 2058.78 2041.05 2061.84 2086.88C2064.02 2119.38 2065.43 2152.32 2069.25 2184.49C2072.64 2205.89 2087.49 2229.08 2091.71 2254H1680.83H1648.11H1640.63H1633.84H504.346C489.502 2165.59 492.523 2096.17 493.661 2006.3C494.03 1977.4 496.346 1938.11 494.434 1910.46C493.558 1897.77 474.711 1842.88 466.313 1832.66C460.965 1833.45 461.003 1834.46 456.608 1840.48C444.429 1857.09 434.32 1861.29 415.7 1869.75C409.88 1925.99 392.533 1975.2 369.41 2026.55C366.755 2032.45 357.609 2039.1 352.22 2042.94C380.474 2105.64 440.398 2184.69 457.068 2254H438.223H209.585H23.7539H-3.0195C-26.608 2233.28 -59.0102 2223.87 -84.5056 2202.95C-129.302 2166.22 -109.635 2141.27 -118.556 2095.16C-125.58 2058.86 -151.412 2014.38 -156.565 1977.13C-158.074 1966.22 -150.314 1946.06 -150.86 1933.98C-159.166 1893.28 -150.889 1886.66 -136.999 1853.81C-117.036 1806.6 -137.778 1793.73 -77.0396 1774.33C-78.084 1768.79 -81.6845 1749.3 -83.4971 1746.45C-129.942 1673.55 -87.394 1668.25 -46.2321 1613.99C-23.3444 1583.79 -16.3209 1482.31 19.0573 1450.12C27.5475 1439.34 43.5195 1429.53 55.161 1421.58C56.2818 1420.4 57.4049 1419.21 58.5257 1418.02L59.9609 1416.4C67.6897 1407.76 91.7387 1349.07 98.2928 1334.43C67.3147 1287.42 95.447 1280.53 118.723 1240.27C140.755 1202.19 163.937 1173.3 191.634 1139.47C197.568 1095.84 201.898 1080.44 220.042 1040.26C241.367 993.018 256.701 942.113 292.086 902.114C309.933 881.94 333.322 869.583 351.632 850.113C369.028 827.337 364.489 815.655 391.545 791.617C402.715 780.852 410.502 775.5 423.285 766.45C429.23 761.117 432.278 760.011 439.515 756.34C456.102 740.151 531.394 717.897 559.957 703.445C594.111 683.403 634.64 680.177 667.549 655.185C671.934 651.855 706.068 642.424 715.438 637.882C765.311 613.707 816.841 594.574 869.922 578.777C912.167 566.67 937.932 572.181 982.672 554.544C980.965 528.471 981.547 504.986 999.347 484.501C1012.99 460.521 1037.64 446.126 1062.61 436.82C1094.79 419.658 1100.05 396.502 1149.45 377.967C1155.52 375.479 1171.14 371.791 1178.21 370.001Z" fill="#2C2C2C"/>
<path d="M1700.8 463.651C1761.24 503.21 1777.82 545.638 1815.33 602.299C1819.21 608.164 1879.05 631.515 1889.97 636.537C1946.34 662.464 2006.49 678.608 2063.66 702.081C2083.83 710.365 2102.76 728.124 2121.79 738.855C2146.67 751.816 2168.01 764.894 2190.65 781.265C2204.91 791.568 2227.51 815.519 2240.29 822.588C2273.8 841.113 2285.93 847.525 2309.69 880.299C2346.51 931.063 2360.5 994.801 2382.49 1052.77C2402.97 1105.16 2412.32 1126.33 2424.36 1182.82L2421.73 1183.69C2417.55 1177.92 2410.21 1134.26 2406.28 1124.76C2378.54 1057.79 2357.27 987.985 2329.62 921.076C2321.33 901.059 2302.37 879.634 2289.57 861.988C2274.97 842.651 2249.99 837.283 2232.43 821.76C2199.07 792.264 2167.25 769.236 2128.28 747.315C2099.23 730.964 2071.9 708.243 2039.87 696.207C2014.94 686.843 1988.95 680.337 1963.73 671.823C1933.32 660.953 1889.79 636.881 1860.81 627.7C1816.77 613.752 1814.83 611.376 1789.25 571.405C1787.63 568.868 1785.68 567.777 1783.48 563.264C1785.46 616.749 1806.95 650.248 1806.16 702.354C1805.89 720.854 1799.99 738.743 1797.2 756.897C1795.85 765.805 1803.27 771.425 1800.23 781.072L1797.79 780.504C1786.47 751.329 1801.6 718.926 1801.99 690.556C1787.3 665.638 1801.54 671.619 1800.59 665.84C1796.87 642.796 1783.61 614.76 1778.16 591.671C1772.88 569.346 1784.92 548.462 1765.15 529.635C1757.09 521.312 1732.38 490.556 1724.68 488.464L1724.74 490.99C1737.39 502.934 1746.98 531.152 1754.93 549.046C1753.72 555.233 1753.67 555.725 1753.78 562.038C1762.93 568.814 1765.71 571.485 1773.51 579.487C1775.37 587.307 1768.92 597.535 1766.66 608.631C1770 617.905 1772.14 616.376 1781.82 623.246L1781.73 626.966C1758.64 640.859 1779.68 643.104 1782.36 651.321C1778.63 651.685 1778.29 651.243 1774.76 650.075C1770.88 667.156 1780.96 710.475 1780.09 730.744C1768.16 712.069 1775.37 662.843 1767.26 632.368C1762.1 588.696 1743 548.758 1723.22 509.626C1717.06 497.48 1710.53 494.225 1697.61 498.044C1697.83 489.337 1699.92 472.899 1700.8 463.651Z" fill="#2C2C2C"/>
<path d="M1178.34 439.372C1179.21 449.81 1179.96 460.256 1180.59 470.712C1180.46 476.989 1179.93 486.717 1180.88 492.617C1189.27 518.874 1201.54 570.484 1189.02 595.467L1185.35 594.695C1178.96 599.343 1181.52 603.372 1177.96 608.168L1176.75 608.52L1178.64 607.077L1176.04 604.85L1175.87 603.292C1172.23 573.412 1168.35 593.076 1159.51 569.718C1154.35 571.236 1155.82 570.06 1152.25 573.4C1158.23 591.024 1181.06 620.343 1182.73 630.673L1179.09 635.024C1187.34 650.519 1195.59 670.389 1211.82 677.373C1212.81 683.718 1213.63 682.905 1211.73 688.179L1211.3 686.809L1208.96 690.217L1204.61 690.498C1184.96 680.141 1160.25 634.871 1143.16 618.531C1137.09 612.73 1128.41 603.566 1132.58 595.25C1133.6 598.979 1134.18 602.739 1134.87 606.893C1135.73 611.1 1149.57 611.751 1149.67 611.922C1156.85 623.895 1184.61 677.173 1197.62 675.085C1181.29 652.468 1167.92 625.565 1147.7 603.763C1139.72 595.155 1134.98 565.879 1129.73 555.098C1123.34 541.949 1112.39 531.608 1112 516.135C1116.5 516.846 1124.15 548.316 1134.06 552.418C1138.24 544.284 1144.5 518.631 1147.23 508.564C1156.98 483.574 1172.51 468.022 1178.34 439.372Z" fill="#2C2C2C"/>
<path d="M1180.88 492.617C1189.27 518.874 1201.54 570.484 1189.03 595.468L1185.35 594.695C1178.96 599.343 1181.52 603.373 1177.96 608.168L1176.75 608.521L1178.64 607.077L1176.04 604.85L1175.87 603.292C1172.23 573.412 1168.35 593.077 1159.51 569.719C1154.35 571.236 1155.82 570.06 1152.25 573.4C1158.23 591.024 1181.06 620.343 1182.73 630.673L1179.09 635.024C1162.82 618.244 1146.61 592.787 1136.7 571.961C1132.74 560.114 1144.69 548.397 1156.45 548.653C1156.99 558.152 1165.2 574.092 1173.81 578.874L1177.17 577.478C1183.64 563.664 1181.11 511.409 1180.88 492.617Z" fill="#2C2C2C"/>
<path d="M1136.7 571.961L1139.8 566.917C1153.44 571.351 1170.3 620.806 1182.73 630.673L1179.09 635.024C1162.82 618.244 1146.61 592.787 1136.7 571.961Z" fill="#676767"/>
<path d="M1062.61 436.82C1094.79 419.658 1100.05 396.502 1149.45 377.967L1149.81 382.733L1147.54 385.059C1126.74 406.706 1127.29 422.11 1112.37 443.856C1112.44 451.056 1112.34 469.23 1113.23 476.522C1113.54 479.032 1120.41 480.669 1121.59 489.717C1115.14 495.552 1073.71 498.484 1066.81 495.632L1065.32 492.301C1069.33 486.555 1073.52 485.435 1080.1 482.214C1078.5 483.04 1076.89 483.864 1075.29 484.69L1072.7 481.1C1061.58 481.19 1036.78 487.999 1031.97 486.005C1038.84 475.855 1059.56 447.037 1062.61 436.82Z" fill="#2C2C2C"/>
<path d="M1147.23 508.564C1133.3 523.454 1136.64 509.685 1128.94 537.701L1124.18 532.237C1122.67 509.646 1125 485.909 1124.51 463.296C1123.75 428.464 1141.75 395.135 1174.05 378.986L1178.44 383.827L1178.92 393.88C1178.77 407.485 1179.17 426.212 1178.34 439.373C1172.51 468.022 1156.98 483.574 1147.23 508.564Z" fill="#2C2C2C"/>
<path d="M982.672 554.544C980.965 528.472 981.547 504.986 999.347 484.501L1002.01 487.656C978.853 526.054 986.268 520.349 993.502 562.11C1001.91 610.611 1003.15 662.304 1014.08 710.729C1014.74 713.638 1015.29 725.362 1013.12 727.107C1010.5 707.139 1006.7 691.396 1003.65 671.48C1000.71 652.363 1000.07 632.175 997.04 613.756L995.117 612.827L993.94 620.117L988.626 609.178C981.908 606.9 981.967 607.048 974.781 606.843C981.455 604.668 983.031 604.493 990.068 603.685L990.052 602.037C982.357 599.304 976.535 605.438 960.503 598.498C968.445 597.071 978.267 596.336 984.307 591.705L984.138 588.126C953.392 566.95 839.942 619.326 800.431 615.162L799.26 612.771L801.12 612.699C816.245 611.994 856.163 607.831 867.173 596.646C886.858 576.647 972.158 596.446 981.836 568.78L980.325 562.094C973.443 561.468 977.921 561.311 973.155 563.026C938.408 575.527 903.207 572.06 867.822 583.674C818.768 599.774 771.782 613.644 726.918 639.932C716.66 645.942 690.666 648.533 679.144 654.035C668.614 658.425 647.141 674.369 636.621 677.977C606.226 688.397 593.24 690.184 564.467 705.612L559.957 703.446C594.111 683.404 634.64 680.177 667.549 655.185C671.934 651.855 706.068 642.424 715.438 637.882C765.311 613.707 816.84 594.574 869.922 578.778C912.167 566.67 937.932 572.181 982.672 554.544Z" fill="#2C2C2C"/>
<path d="M423.285 766.449C429.23 761.117 432.278 760.011 439.515 756.34C450.682 768.178 523.404 766.259 528.674 794.709L526.306 796.633C523.288 795.436 517.445 793.326 514.721 791.781C509.838 789.015 494.362 795.494 492.601 792.349C489.583 786.95 491.579 782.008 487.334 777.296C468.148 775.69 433.969 777.037 423.285 766.449Z" fill="#2C2C2C"/>
<path d="M1767.26 632.368C1775.37 662.843 1768.16 712.069 1780.09 730.743C1781.16 741.08 1781.01 747.739 1780.83 758.08L1779.46 759.216C1773.26 748.352 1767.26 737.382 1761.44 726.312C1761.33 700.284 1759.76 656.806 1767.26 632.368Z" fill="#2C2C2C"/>
<path d="M391.545 791.617C402.715 780.852 410.502 775.5 423.285 766.45C433.969 777.037 468.148 775.691 487.334 777.296C469.338 782.302 463.961 786.15 447.367 779.105L454.833 780.111C445.078 776.038 435.202 777.406 424.54 777.839C417.804 784.797 412.66 791.658 403.757 794.675C397.839 794.491 396.65 794.834 391.545 791.617Z" fill="#2C2C2C"/>
<path d="M1006.44 613.556C1011.77 614.147 1011.43 614.225 1016.08 617.002C1024.18 630.924 1025.53 646.422 1025.85 662.185C1026.5 694.407 1036.22 690.229 1060.29 711.095C1067.17 711.817 1064.01 712.446 1070.09 709.112C1072.98 694.175 1040.29 658.272 1030.92 646.741C1051.54 648.337 1057.02 670.49 1062.24 684.917C1068.34 691.519 1074.55 697.146 1078.09 705.266C1069.37 732.133 1047.33 703.912 1035.2 697.173C1033.4 706.265 1036.46 713.156 1042.14 720.122C1046.96 720.192 1048.85 719.684 1052.98 722.044C1048.07 727.136 1050.94 725.968 1044.3 726.161C1025.72 713.822 1003.12 634.108 1006.44 613.556Z" fill="#2C2C2C"/>
<path d="M1339.9 -652.246C1344.95 -661.828 1347.44 -667.768 1355.91 -674.802C1364.07 -681.576 1361.06 -691.445 1369.19 -698.187C1370.17 -685.318 1361.5 -673.177 1362.7 -655.519C1366.72 -654.127 1367.34 -654.778 1371.66 -655.627C1382.53 -659.529 1393.26 -665.597 1403.17 -671.417C1413.68 -675.828 1423.05 -687.332 1434.44 -684.822L1434.46 -679.78C1439.96 -682.305 1487.35 -681.405 1497.82 -681.67L1497.98 -679.542L1491.08 -674.178C1499.12 -670.779 1501.03 -672.382 1507.91 -677.411L1510.96 -676.605L1505.84 -666.805C1507.19 -665.593 1529.24 -660.797 1538.65 -656.498L1542.58 -655.052L1546.18 -650.717C1551.73 -649.693 1555.88 -648.539 1561.52 -649.098C1593.23 -646.772 1627.11 -638.245 1644.6 -609.218C1650.6 -605.826 1655.81 -603.109 1661.31 -598.851C1677.55 -591.808 1690.51 -587.663 1702.24 -573.957L1704.95 -571.793L1724.88 -555.601C1736.09 -547.079 1768.86 -523.566 1774.99 -513.119L1779.21 -506.891C1775.06 -503.746 1773.91 -504.155 1768.72 -503.6C1769.04 -499.033 1768.29 -501.027 1771.57 -497.769C1787.43 -484.723 1788.73 -477.714 1792.51 -457.12L1790.96 -453.997L1783.91 -452.87C1789.43 -444.451 1799.16 -430.859 1802.14 -421.97C1810.21 -403.415 1811.33 -387.436 1820.56 -366.6C1829.79 -323.076 1828.74 -273.891 1829.12 -229.354C1829.21 -219.829 1826.33 -211.52 1827.55 -201.908C1827.57 -181.419 1824.63 -140.925 1826.72 -123.597C1825.59 -112.311 1824.2 -101.049 1822.58 -89.8217C1820.74 -80.6841 1820.13 -75.9402 1816.34 -67.2719C1829.32 -63.9312 1838.08 -62.3215 1846.1 -50.7188C1864.5 10.8934 1850.95 99.559 1819.8 155.783C1817.03 160.819 1813.73 165.538 1809.94 169.853C1798.73 178.335 1788.87 181.26 1775.17 184.556C1766.9 221.452 1755.29 268.296 1732.99 299.395C1725.75 309.018 1717.49 319.21 1712.21 329.913C1711.56 336.394 1708.82 373.465 1707.25 376.591C1704.93 399.039 1697.99 444.078 1700.8 463.651C1699.92 472.899 1697.83 489.337 1697.61 498.044C1691.82 548.832 1696.35 575.547 1697.03 623.926C1626.63 751.702 1365.44 710.841 1247.85 683.76C1240.57 683.383 1220.01 678.943 1211.82 677.373C1195.59 670.389 1187.34 650.52 1179.09 635.024L1182.73 630.673C1181.06 620.343 1158.23 591.024 1152.25 573.401C1155.82 570.06 1154.35 571.236 1159.51 569.719C1168.35 593.077 1172.23 573.412 1175.87 603.292L1176.04 604.85L1178.64 607.077L1176.75 608.521L1177.96 608.168C1181.52 603.373 1178.96 599.343 1185.35 594.695L1189.02 595.468C1201.54 570.484 1189.27 518.874 1180.88 492.617C1179.93 486.717 1180.46 476.989 1180.59 470.712C1179.96 460.257 1179.21 449.81 1178.34 439.373C1179.17 426.212 1178.77 407.485 1178.92 393.88L1178.44 383.827L1178.21 370.001C1178.76 364.842 1179.8 359.063 1180.62 353.875C1172.24 319.318 1173.5 284.034 1161.01 238.966L1149.13 209.879C1137.92 212.357 1133.39 213.183 1121.9 213.92L1120.43 210.263L1107.38 202.007C1092.71 188.851 1093.78 184.572 1092.93 165.805L1086.14 165.731C1078.11 161.721 1077.86 159.979 1073.04 151.854C1063.26 151.982 1056.67 139.333 1051.44 132.019L1046.02 132.304C1013.52 105.188 1011.17 76.6389 1015.46 37.9761C1018.67 5.76343 1019.97 -16.4272 1057.52 -21.3171C1055.82 -36.4984 1055.19 -41.4982 1045.37 -53.7654C1040.4 -60.6443 1041.03 -87.269 1040.66 -97.1946C1029.87 -145.902 1007.05 -209.384 1002.32 -261.066C1001.18 -273.421 1013.06 -310.131 1011.13 -315.515C1006.4 -316.152 1006.28 -315.959 1002.03 -317.993C1009.84 -346.156 1008.49 -364.66 1016.24 -390.633C1019.28 -414.541 1029.91 -446.013 1051.88 -460.555C1058.4 -464.87 1059.58 -466.024 1064.47 -472.088C1070.38 -478.381 1071.85 -477.741 1072.77 -484.579L1066.42 -488.8C1067.24 -495.524 1082.53 -505.207 1088.6 -508.73C1124.57 -529.567 1139.84 -557.083 1166.7 -587.344L1154.81 -586.271C1156.68 -592.32 1182.88 -609.555 1190.28 -617.018C1196.11 -622.431 1199.92 -623.351 1207.44 -623.939L1211.74 -621.802C1218.01 -623.482 1222.93 -621.566 1229.57 -619.193C1245.26 -613.594 1261.3 -635.868 1278.31 -634.224C1285.75 -633.506 1290.74 -633.697 1297.24 -636.849L1294.98 -642.174L1292.67 -641.301C1281.19 -648.501 1252.23 -662.546 1245.49 -669.499C1257.59 -664.356 1275.15 -656.186 1287.48 -653.366L1287.09 -655.883C1279.1 -660.261 1272.11 -663.976 1264.53 -669.145L1266.06 -670.943C1289.14 -671.239 1295.02 -644.296 1304.16 -653.591C1302.25 -658.622 1300.48 -663.24 1298.88 -668.399C1306.66 -664.295 1309.85 -652.091 1319.01 -642.944C1322.13 -639.644 1325.64 -633.647 1328.15 -629.694L1330.33 -630.033C1332.35 -636.395 1335.85 -643.916 1336.51 -650.286L1339.9 -652.246Z" fill="#676767"/>
<path d="M1470.46 -163.302L1472.96 -163.443L1490.05 -161.449L1493.01 -161.676C1493.58 -150.7 1494.43 -140.318 1493.42 -129.358L1490.97 -130.431L1489.47 -121.781C1485.06 -123.617 1480.62 -124.309 1475.92 -125.359L1480.68 -113.573C1483.83 -108.193 1490.59 -97.5403 1492.18 -92.0847C1502.63 -77.3502 1514.69 -60.2224 1532.66 -55.2809C1536.09 -54.338 1537.51 -52.9999 1540.2 -50.7682L1546.43 -48.8824L1559.68 -45.4226C1570.71 -33.7481 1595.14 -30.2592 1611.47 -27.0847C1622.57 -24.1346 1625.98 -24.6039 1637.39 -24.9833C1652.01 -36.4176 1666.75 -20.3315 1700.67 -40.8315C1695.32 -43.7546 1694.26 -45.7864 1691.05 -50.6425C1703.14 -53.0201 1738.17 -63.2083 1743.45 -74.3126L1740.56 -78.942L1741.27 -80.3586C1741.14 -87.058 1740.87 -87.0378 1738.53 -93.4925C1737.07 -97.4932 1735.82 -103.447 1734.78 -107.753L1731.77 -122.551C1737.19 -118.941 1742.31 -114.635 1748.62 -114.058L1749 -100.975C1750.62 -109.9 1751.07 -115.441 1755.22 -123.572L1758.86 -123.905L1763.4 -119.064C1766.27 -104.835 1768.77 -90.5245 1770.83 -76.1536L1775.33 -80.5831L1782 -75.2218L1781.39 -83.0303L1782.47 -84.2404C1787.21 -74.2699 1789.66 -66.9082 1793.2 -56.5022L1791.16 -51.6371L1803.47 -50.9164C1806.86 -54.4345 1812.54 -62.674 1816.34 -67.2719C1829.32 -63.9312 1838.08 -62.3215 1846.1 -50.7188C1864.5 10.8934 1850.95 99.559 1819.8 155.783C1817.04 160.819 1813.73 165.538 1809.94 169.853C1798.73 178.335 1788.87 181.26 1775.17 184.556C1766.9 221.452 1755.29 268.296 1732.99 299.395C1725.75 309.018 1717.49 319.21 1712.21 329.913C1711.56 336.394 1708.82 373.465 1707.25 376.591C1707.36 363.538 1707.85 348.606 1706.93 335.766C1701.72 341.592 1671.76 379.792 1670.41 380.333C1646.58 389.785 1634.2 400.402 1619.65 421.037C1616.28 425.83 1573.02 427.029 1565.56 430.704C1555.46 431.49 1460.45 449.235 1453.1 459.906C1450.16 464.188 1452.49 468.698 1450.85 473.056C1445.51 477.982 1440.84 481.015 1439.2 487.786C1436.34 482.651 1435.6 480.137 1429.72 479.93C1427.85 484.887 1428.3 489.836 1428.24 495.201C1418.49 477.564 1430.48 480.822 1430.42 478.022C1430.24 470.474 1424.33 459.895 1427.99 450.416C1469.43 434.723 1521.29 440.538 1563.07 423.599C1560.04 422.833 1539.55 422.615 1532.95 422.031L1535.22 411.87L1542.09 405.267C1517.83 382.336 1469.12 423.578 1454.34 388.972C1449.89 390.443 1440.84 394.475 1437.65 392.978C1426.78 376.961 1430.12 394.269 1416.8 380.376C1413.17 377.047 1409.55 375.773 1405.08 373.703L1402.18 363.76L1398.84 360.408C1392.59 352.007 1364.47 338.487 1353.87 333.305C1347.56 326.134 1341.51 318.166 1333.38 313.126L1342.28 313.173C1336.53 302.951 1324.04 305.973 1319.1 291.515L1321.12 289.943C1325.35 295.495 1327.75 301.063 1333.16 301.851L1334.1 298.468C1329.57 289.115 1324.19 290.119 1316.7 283.123L1322.22 282.133C1324.03 275.471 1309.57 268.074 1307.85 258.472C1313.67 264.264 1315.57 267.315 1323.14 269.396L1325.08 267.773C1312.7 256.267 1291.34 239.388 1288.3 222.568C1287.08 221.665 1255.34 164.66 1253.44 159.584C1253.31 149.142 1253.03 138.702 1252.61 128.269C1261.26 146.033 1271.74 181.283 1292.73 188.341L1279.5 173.201L1281.14 170.105C1279.06 147.027 1261.89 144.793 1277.69 112.729L1280.99 114.285C1298 126.586 1296.08 111.299 1302.5 122.16L1305.08 121.199L1306.13 120.982L1311.79 114.455C1314.89 92.5229 1310.98 101.472 1324.47 78.9311C1356.56 40.0101 1328.72 37.6999 1341.69 15.0222C1345.47 7.13063 1349.29 -0.73172 1353.15 -8.56262C1356.68 -12.2221 1358.27 -14.135 1361.33 -18.028C1368.22 -23.1737 1380.55 -37.6815 1389.65 -45.3082L1391 -46.4307L1389.36 -51.6438L1393.58 -56.0015C1399.85 -62.6291 1401.4 -66.2437 1405.53 -74.1218L1398.45 -82.6239C1401.73 -90.713 1401.24 -92.1813 1401.06 -101.193C1397.02 -101.148 1397.64 -101.335 1393.65 -102.417L1392.28 -107.722C1401.71 -115.333 1397.71 -119.668 1411.77 -127.941C1409.8 -136.484 1414.6 -154.73 1423.52 -158.984C1428.93 -159.525 1435.2 -160.594 1440.66 -161.38L1466.11 -163.852L1470.46 -163.302Z" fill="#FF5545"/>
<path d="M1444.72 170.417L1451.89 178.247C1449.91 182.479 1449.1 182.484 1445.33 185.452C1451.1 188.072 1452.58 188.696 1458.72 190.203C1461.55 202.795 1455.8 204.825 1456.02 215.085C1439.51 222.238 1452.52 222.539 1437.87 228.699C1435.09 227.157 1432.3 225.574 1429.56 223.951C1424.89 227.298 1425.16 227.018 1422.19 231.919L1419.57 233.136C1422.6 226.306 1422.35 225.909 1421.27 218.251L1415.77 220.7L1412.65 219.434C1413.01 207.18 1408.56 210.37 1402.54 198.451L1405.53 190.914L1403.21 185.605C1410.18 183.411 1407.84 184.39 1412.74 176.411C1417.16 178.849 1420.4 181.254 1425.36 181.498L1434.01 179.799C1436.14 178.319 1442.45 172.442 1444.72 170.417Z" fill="#FF5545"/>
<path d="M1412.74 176.411C1417.16 178.849 1420.4 181.254 1425.36 181.498L1425.97 186.961L1420.31 188.93C1417.68 201.255 1425.27 203.215 1421.27 218.251L1415.77 220.7L1412.65 219.434C1413.01 207.18 1408.56 210.37 1402.54 198.451L1405.53 190.914L1403.21 185.605C1410.18 183.411 1407.84 184.39 1412.74 176.411Z" fill="#676767"/>
<path d="M1425.36 181.498L1434.01 179.799C1439.67 187.075 1441.35 186.619 1441.76 194.037C1436.37 197.901 1431.11 200.797 1428.21 206.655L1431.58 215.473C1425.29 227.036 1425.07 219.124 1422.19 231.919L1419.57 233.136C1422.6 226.306 1422.35 225.909 1421.27 218.251C1425.27 203.215 1417.68 201.255 1420.31 188.93L1425.97 186.961L1425.36 181.498Z" fill="#676767"/>
<path d="M1470.46 -163.302L1472.96 -163.443L1490.05 -161.449L1493.01 -161.676C1493.58 -150.7 1494.43 -140.318 1493.42 -129.358L1490.97 -130.431L1489.46 -121.781C1485.06 -123.617 1480.62 -124.309 1475.92 -125.359L1480.68 -113.573C1483.83 -108.193 1490.59 -97.5403 1492.18 -92.0847C1502.63 -77.3502 1514.69 -60.2224 1532.66 -55.2809C1536.09 -54.338 1537.51 -52.9999 1540.2 -50.7682L1546.43 -48.8824L1559.68 -45.4226C1570.71 -33.7481 1595.14 -30.2592 1611.47 -27.0847C1622.57 -24.1346 1625.98 -24.6039 1637.39 -24.9833C1634.85 -15.7919 1631.91 -11.2141 1637.82 -2.41107C1660.66 31.6224 1676.72 33.2433 1670.48 79.8762C1672.05 86.7732 1672.23 83.5201 1670.39 90.0152L1666.21 89.7076C1656.78 84.1465 1655.56 82.3234 1648.89 74.0323C1649.32 82.4133 1651 85.626 1647.1 91.6249L1642.15 93.0236L1644.27 98.4858C1654.53 118.431 1639.01 174.53 1611.38 177.188C1602.83 186.981 1590.38 200.878 1580.79 209.6L1580.86 211.246C1579.76 211.866 1567.85 218.718 1567.45 218.812C1554.29 221.784 1517.02 202.438 1513.41 224.514L1510.06 219.917C1511.27 216.084 1512.73 214.295 1511.41 211.711C1508.44 217.817 1505.43 217.763 1499.84 222.013L1493.67 221.436L1490.32 225.855L1494.74 232.702L1493.01 232.579L1492.79 232.267C1477.04 228.143 1466.71 235.583 1459.39 220.294L1456.02 215.085C1455.8 204.825 1461.55 202.795 1458.72 190.203C1452.58 188.696 1451.1 188.072 1445.33 185.452C1449.1 182.484 1449.91 182.48 1451.89 178.248L1444.72 170.417C1442.45 172.442 1436.14 178.319 1434.01 179.799L1425.36 181.498C1420.4 181.254 1417.16 178.849 1412.74 176.411C1407.84 184.39 1410.18 183.411 1403.21 185.605L1405.53 190.914L1402.54 198.451C1408.56 210.37 1413.01 207.18 1412.65 219.434C1367.19 218.908 1377.32 196.904 1345.8 181.422L1341.92 169.523L1336.3 158.161L1329.16 150.655L1330.13 146.533C1316.12 124.83 1318.7 147.912 1306.13 120.982L1311.79 114.455C1314.89 92.5229 1310.98 101.472 1324.47 78.9311C1356.56 40.0101 1328.72 37.6999 1341.69 15.0222C1345.47 7.13063 1349.29 -0.73172 1353.15 -8.56262C1356.68 -12.2221 1358.27 -14.135 1361.33 -18.028C1368.22 -23.1737 1380.55 -37.6815 1389.65 -45.3082L1391 -46.4307L1389.36 -51.6438L1393.58 -56.0015C1399.85 -62.6291 1401.4 -66.2437 1405.53 -74.1218L1398.45 -82.6239C1401.73 -90.713 1401.24 -92.1813 1401.06 -101.193C1397.02 -101.148 1397.64 -101.335 1393.65 -102.417L1392.28 -107.722C1401.71 -115.333 1397.71 -119.668 1411.77 -127.941C1409.8 -136.484 1414.6 -154.73 1423.52 -158.984C1428.93 -159.525 1435.2 -160.594 1440.66 -161.38L1466.11 -163.852L1470.46 -163.302Z" fill="#676767"/>
<path d="M1488.9 66.0151L1497.15 65.0698L1496.88 71.7669L1495.66 71.6389C1492.16 76.7353 1486.81 83.5335 1485.22 89.2383L1483.13 100.432C1479.11 90.8121 1482.75 88.6612 1475.34 81.0459L1465.45 81.1515C1457.66 80.3635 1449.89 82.64 1437.98 81.4748L1434.46 76.5781L1437.18 76.4637L1436.95 71.4549C1443.29 67.3172 1440.46 68.3364 1448.7 68.6507C1462.02 69.3983 1475.92 69.5152 1488.9 66.0151Z" fill="#FF5545"/>
<path d="M1488.9 66.0151L1497.15 65.0698L1496.88 71.7669L1495.66 71.6389C1472.37 73.1476 1463.59 76.8297 1437.18 76.4637L1436.95 71.4549C1443.29 67.3172 1440.46 68.3364 1448.7 68.6507C1462.02 69.3983 1475.92 69.5152 1488.9 66.0151Z" fill="#676767"/>
<path d="M1496.88 71.7669C1502.11 71.9442 1518.82 69.9573 1526.26 69.7261L1537.64 72.3125C1552.65 76.2212 1594.24 89.1238 1602.47 101.703C1609.97 110.423 1612.46 114.08 1618.5 123.826L1627.87 136.938C1624.66 155.053 1622.82 159.256 1609.61 172.298L1611.38 177.188C1602.83 186.981 1590.38 200.878 1580.79 209.6L1580.86 211.246C1579.76 211.866 1567.85 218.718 1567.45 218.812C1554.29 221.784 1517.02 202.438 1513.41 224.514L1510.06 219.916C1511.27 216.084 1512.73 214.295 1511.41 211.711C1508.44 217.817 1505.43 217.763 1499.84 222.013L1493.67 221.436L1490.32 225.855L1494.74 232.702L1493.01 232.579L1492.79 232.267C1477.04 228.142 1466.71 235.583 1459.39 220.294L1456.02 215.085C1455.8 204.825 1461.55 202.795 1458.72 190.203C1452.58 188.696 1451.1 188.072 1445.33 185.452C1449.1 182.484 1449.91 182.479 1451.89 178.247L1444.72 170.416C1443.67 159.588 1443.64 152.797 1438.91 142.975C1440.79 135.84 1440.77 136.037 1444.77 129.776L1450.34 129.648C1456.04 127.531 1461.14 127.472 1467.18 126.922C1463.79 124.313 1463.95 124.307 1461.5 120.766C1467.72 117.744 1477.36 120.795 1485.56 115.634C1487.17 109.433 1485.33 106.519 1483.13 100.432L1485.22 89.2383C1486.81 83.5335 1492.16 76.7352 1495.66 71.6389L1496.88 71.7669Z" fill="#FF5545"/>
<path d="M1497.03 125.198L1500.22 125.144C1491.96 150.177 1491.76 160.711 1515.29 175.89C1514.17 182.798 1514.1 182.596 1515.21 189.466C1509.88 194.116 1510.15 193.837 1503.17 195.391L1496.54 189.139C1479.31 194.778 1475.27 194.484 1458.72 190.203C1452.58 188.696 1451.1 188.072 1445.33 185.452C1449.1 182.484 1449.91 182.48 1451.89 178.247L1444.72 170.417C1443.67 159.588 1443.64 152.797 1438.91 142.975C1440.79 135.84 1440.77 136.037 1444.77 129.776L1450.34 129.648L1454.2 129.565C1462.87 129.973 1469.05 129.042 1475.31 134.443C1477.9 140.036 1477.96 139.616 1477.74 145.712C1480.1 146.688 1478.62 146.428 1482.19 145.004C1485.09 132.643 1486.79 131.186 1497.03 125.198Z" fill="#D3D3D3"/>
<path d="M1450.34 129.648L1454.2 129.565C1448.77 143.356 1453.19 169.357 1465.52 178.53C1472.12 179.552 1469.54 179.727 1476.39 175.715L1479.49 170.183C1489.69 169.801 1485.62 168.87 1494.79 174.06C1500.81 182.013 1501.1 185.899 1503.17 195.391L1496.54 189.138C1479.31 194.778 1475.27 194.484 1458.72 190.203C1452.58 188.696 1451.1 188.072 1445.33 185.452C1449.1 182.484 1449.91 182.479 1451.89 178.247L1444.72 170.416C1443.67 159.588 1443.64 152.797 1438.91 142.975C1440.79 135.84 1440.77 136.037 1444.77 129.776L1450.34 129.648Z" fill="#D3D3D3"/>
<path d="M1563.45 181.139L1567.94 184.958L1564.69 187.731L1568.15 191.958L1565.45 193.128C1562.24 194.529 1560.53 195.505 1557.5 197.344C1553.14 196.796 1550.78 197.293 1546.61 198.231C1555.46 208.46 1560.76 203.26 1573.94 210.667L1580.79 209.6L1580.86 211.246C1579.76 211.866 1567.85 218.718 1567.45 218.812C1554.29 221.784 1517.02 202.438 1513.41 224.514L1510.06 219.916C1511.27 216.084 1512.73 214.295 1511.41 211.711C1508.44 217.817 1505.43 217.763 1499.84 222.013L1493.67 221.436L1490.32 225.855L1494.74 232.702L1493.01 232.579L1492.79 232.267C1477.04 228.142 1466.71 235.583 1459.39 220.294L1456.02 215.085C1455.8 204.825 1461.55 202.795 1458.72 190.203C1475.27 194.484 1479.31 194.778 1496.54 189.138L1503.17 195.391C1510.15 193.837 1509.88 194.116 1515.21 189.466C1528.43 193.189 1544.38 188.296 1557.21 183.6L1563.45 181.139Z" fill="#FF5545"/>
<path d="M1546.61 198.231C1555.45 208.46 1560.76 203.26 1573.94 210.667L1580.79 209.6L1580.86 211.246C1579.76 211.866 1567.85 218.718 1567.45 218.812C1554.29 221.784 1517.02 202.438 1513.41 224.514L1510.06 219.916C1511.27 216.084 1512.73 214.295 1511.41 211.711C1508.44 217.817 1505.43 217.763 1499.84 222.013L1493.67 221.436L1490.32 225.855L1494.74 232.702L1493.01 232.579L1492.79 232.267C1477.04 228.142 1466.71 235.583 1459.39 220.294C1470.89 212.815 1482.75 205.036 1493.55 215.022C1508.44 216.05 1512.58 204.362 1517.47 203.952C1528.97 202.993 1533.02 206.688 1546.61 198.231Z" fill="#FF5545"/>
<path d="M1496.88 71.7669C1502.11 71.9442 1518.82 69.9573 1526.26 69.7261L1537.64 72.3125C1552.65 76.2212 1594.25 89.1238 1602.47 101.703L1604.46 108.393L1601.52 109.458C1575.87 102.763 1526.1 108.557 1497.82 102.805C1490.32 101.276 1488.97 95.8052 1485.22 89.2383C1486.81 83.5335 1492.16 76.7352 1495.66 71.6389L1496.88 71.7669Z" fill="#FF5545"/>
<path d="M1485.22 89.2384C1488.97 95.8053 1490.32 101.277 1497.82 102.805C1526.1 108.557 1575.87 102.763 1601.52 109.458L1604.46 108.394L1602.47 101.703C1609.97 110.423 1612.46 114.08 1618.5 123.826L1611.97 126.038L1610.37 125.328C1586.23 97.3386 1534.7 124.248 1514.6 109.069L1511.34 114.096L1506.54 114.617C1505.08 112.363 1504.02 110.118 1502.94 107.664L1497.93 110.668C1494 117.704 1495.13 115.167 1497.03 125.198C1486.79 131.186 1485.09 132.643 1482.19 145.004C1478.62 146.428 1480.1 146.688 1477.74 145.712C1477.97 139.616 1477.9 140.036 1475.31 134.443C1469.05 129.042 1462.87 129.973 1454.2 129.565L1450.34 129.648C1456.04 127.531 1461.14 127.472 1467.18 126.922C1463.79 124.314 1463.95 124.307 1461.5 120.766C1467.72 117.744 1477.36 120.795 1485.56 115.634C1487.17 109.433 1485.33 106.519 1483.13 100.432L1485.22 89.2384Z" fill="#FF5545"/>
<path d="M1545.86 172.799C1541.62 173.333 1537.6 173.459 1533.33 173.69C1518.37 163.832 1521.43 148.347 1531.58 135.871C1539.15 132.721 1535.53 132.701 1542.85 135.451C1548.78 141.906 1548.16 143.972 1548.96 153.311L1556.24 148.56C1571.22 152.052 1569.61 170.158 1563.45 181.139L1557.21 183.6C1553.46 178.548 1551.7 174.974 1545.86 172.799Z" fill="#D3D3D3"/>
<path d="M1611.97 126.038C1628.32 145.703 1616.75 166.387 1595.71 170.87C1589.75 162.469 1596.54 141.987 1588.45 125.203L1590.22 122.762C1598.58 121.959 1602.38 123.407 1610.37 125.328L1611.97 126.038Z" fill="#2C2C2C"/>
<path d="M1500.22 125.144C1523.96 128.233 1530.97 161.048 1515.3 175.89C1491.76 160.711 1491.96 150.177 1500.22 125.144Z" fill="#D3D3D3"/>
<path d="M1568.15 191.958C1586.83 190.45 1596.63 183.941 1609.61 172.298L1611.38 177.188C1602.83 186.981 1590.38 200.878 1580.79 209.6L1573.94 210.667C1560.76 203.26 1555.45 208.46 1546.61 198.231C1550.78 197.293 1553.14 196.796 1557.5 197.344C1560.53 195.506 1562.24 194.529 1565.45 193.128L1568.15 191.958Z" fill="#FF5545"/>
<path d="M1518.98 119.181C1537.96 118.577 1575.94 115.353 1586.23 139.946C1588.18 144.621 1586.09 145.896 1583.62 149.858L1574.05 147.979L1572.7 150.678C1570.26 146.756 1570.05 143.107 1569.25 138.527L1565.9 136.354C1560.1 138.098 1558.31 139.169 1552.36 137.793C1543.06 121.193 1537.28 121.994 1518.98 119.181Z" fill="#FF5545"/>
<path d="M1381.65 98.9169L1380.28 96.0567C1398.68 86.5397 1413.95 79.7415 1434.46 76.5781L1437.98 81.4748C1449.89 82.64 1457.66 80.3635 1465.45 81.1515L1475.34 81.0458C1482.75 88.6612 1479.11 90.812 1483.13 100.432C1485.33 106.519 1487.17 109.433 1485.56 115.634C1477.36 120.795 1467.72 117.744 1461.5 120.766C1463.95 124.307 1463.79 124.313 1467.18 126.922C1461.14 127.472 1456.04 127.531 1450.34 129.648L1444.77 129.776C1440.77 136.037 1440.79 135.84 1438.91 142.975C1443.64 152.797 1443.67 159.588 1444.72 170.416C1442.45 172.442 1436.14 178.319 1434.01 179.799L1425.36 181.498C1420.4 181.254 1417.16 178.849 1412.74 176.411C1407.84 184.39 1410.18 183.411 1403.21 185.605L1405.53 190.914L1402.54 198.451C1408.56 210.37 1413.01 207.18 1412.65 219.434C1367.19 218.908 1377.32 196.904 1345.8 181.422L1341.92 169.523L1336.3 158.161L1337.76 143.334L1340.91 134.913C1357.73 121.911 1357.48 114.747 1381.65 98.9169Z" fill="#676767"/>
<path d="M1381.65 98.9169L1380.28 96.0567C1398.68 86.5397 1413.95 79.7415 1434.46 76.5781L1437.98 81.4748C1449.89 82.64 1457.66 80.3635 1465.45 81.1515L1475.34 81.0458C1482.75 88.6612 1479.11 90.812 1483.13 100.432C1485.33 106.519 1487.17 109.433 1485.56 115.634C1477.36 120.795 1467.72 117.744 1461.5 120.766C1463.95 124.307 1463.79 124.313 1467.18 126.922C1461.14 127.472 1456.04 127.531 1450.34 129.648L1444.77 129.776L1443.69 125.155C1431.11 125.268 1414.94 125.973 1414.65 108.582C1418.31 103.874 1419.16 103.198 1424.69 100.973L1423.41 98.9348C1416.26 96.6493 1415.19 95.9309 1409.08 91.4318L1407.55 90.2867C1396.84 94.8398 1393.17 96.5303 1381.65 98.9169Z" fill="#676767"/>
<path d="M1381.65 98.9169L1380.28 96.0567C1398.68 86.5397 1413.95 79.7415 1434.46 76.5781L1437.98 81.4748C1449.89 82.64 1457.66 80.3635 1465.45 81.1515L1466.53 82.595C1463.1 90.7177 1460.62 97.7494 1455.37 104.846C1453.35 105.262 1451.33 105.594 1449.3 105.848C1427.02 108.679 1430.46 86.9236 1407.55 90.2867C1396.84 94.8398 1393.17 96.5303 1381.65 98.9169Z" fill="#676767"/>
<path d="M1465.45 81.1515L1475.34 81.0459C1482.75 88.6613 1479.11 90.8121 1483.13 100.432C1485.33 106.519 1487.17 109.433 1485.56 115.634C1477.36 120.795 1467.72 117.744 1461.5 120.766C1463.95 124.307 1463.79 124.313 1467.18 126.922C1461.14 127.472 1456.04 127.531 1450.34 129.648L1444.77 129.776L1443.69 125.155L1441.4 118.71L1443.08 115.288C1449.96 113.387 1453.03 112.498 1459.01 108.674C1463.66 110.351 1464.85 110.414 1469.61 111.171L1474.21 107.628C1478.93 96.9637 1477.16 88.0416 1466.53 82.595L1465.45 81.1515Z" fill="#FF5545"/>
<path d="M1337.76 143.334C1350.81 139.638 1358.43 137.126 1371.7 134.805L1375.48 137.151C1374.26 144.328 1375.59 141.037 1370.71 147.099C1372.58 158.374 1372.76 169.873 1379.41 177.823C1388.95 181.532 1390.84 179.287 1403.21 185.605L1405.53 190.914L1402.54 198.451C1408.56 210.37 1413.01 207.18 1412.65 219.434C1367.19 218.908 1377.32 196.904 1345.8 181.422L1341.92 169.523L1336.3 158.16L1337.76 143.334Z" fill="#676767"/>
<path d="M1337.76 143.334C1350.81 139.638 1358.43 137.126 1371.7 134.805L1375.48 137.151C1374.26 144.328 1375.59 141.037 1370.71 147.099C1363.71 159.799 1365.79 161.665 1366 175.427C1360.63 176.837 1349.06 171.33 1341.92 169.523L1336.3 158.16L1337.76 143.334Z" fill="#2C2C2C"/>
<path d="M1412.74 176.411C1414.11 165.053 1408.47 151.915 1418.83 139.717C1424.26 140.516 1434.97 143.796 1438.91 142.975C1443.64 152.797 1443.67 159.588 1444.72 170.417C1442.45 172.442 1436.14 178.319 1434.01 179.799L1425.36 181.498C1420.4 181.254 1417.16 178.849 1412.74 176.411Z" fill="#FF5545"/>
<path d="M1401.49 150.779L1407.17 155.051C1410.29 163.719 1408.31 170.749 1407.03 180.075L1399.96 175.511C1395.89 165.74 1398.52 162.047 1401.49 150.779Z" fill="#FF5545"/>
<path d="M1341.69 15.022L1343.27 28.1783L1363.86 33.3532C1402.7 69.2097 1424.01 38.5888 1461.86 39.1366L1465.21 39.2174C1456.2 30.0439 1451.75 26.1465 1441.56 18.2954L1450.18 14.8828C1458.31 21.113 1474.37 31.0408 1477.13 39.6306C1472.82 48.7659 1453.17 45.3129 1441.8 52.5466C1439.33 60.7704 1442.63 63.1277 1448.7 68.6506C1440.46 68.3363 1443.29 67.3171 1436.95 71.4548L1437.18 76.4636L1434.46 76.5781C1413.95 79.7414 1398.68 86.5396 1380.28 96.0566L1381.65 98.9168C1357.48 114.747 1357.73 121.911 1340.91 134.913L1337.76 143.334L1336.3 158.16L1329.16 150.655L1330.13 146.533C1316.12 124.83 1318.7 147.912 1306.13 120.982L1311.79 114.455C1314.89 92.5228 1310.98 101.472 1324.47 78.931C1356.56 40.01 1328.72 37.6998 1341.69 15.022Z" fill="#676767"/>
<path d="M1341.02 85.1837C1366.24 60.6358 1368.09 80.1884 1379.95 82.9027C1395.42 86.4433 1415.77 65.5683 1436.95 71.455L1437.18 76.4638L1434.46 76.5783C1413.95 79.7416 1398.68 86.5398 1380.28 96.0568L1381.65 98.917C1357.48 114.747 1357.73 121.911 1340.91 134.913L1337.76 143.334L1336.3 158.161L1329.16 150.655L1330.13 146.533C1316.12 124.83 1318.7 147.912 1306.13 120.982L1311.79 114.455L1315.35 113.982C1316.97 103.499 1322.75 96.2139 1328.64 87.7229L1333.68 90.489L1341.02 85.1837Z" fill="#676767"/>
<path d="M1328.64 87.7228L1333.68 90.4889C1331.61 95.6481 1321.01 115.039 1320.77 117.012C1327.9 121.705 1330.89 122.63 1334.08 130.034C1334.26 138.377 1333.81 138.776 1330.13 146.533C1316.12 124.83 1318.7 147.912 1306.13 120.982L1311.79 114.455L1315.35 113.982C1316.97 103.499 1322.75 96.2137 1328.64 87.7228Z" fill="#676767"/>
<path d="M1341.02 85.1836C1349.13 90.3383 1347.92 87.9339 1351.31 95.4415C1347.76 107.686 1332.98 116.514 1320.77 117.012C1321.01 115.039 1331.61 95.6481 1333.68 90.4888L1341.02 85.1836Z" fill="#676767"/>
<path d="M1341.69 15.0221L1343.27 28.1783C1349.53 40.4051 1360.07 38.6719 1376.15 48.4268C1365.66 55.2923 1362 58.101 1350.14 62.2814C1349.08 66.7379 1349.74 66.931 1351.35 71.3763C1344.01 78.4821 1342.08 71.1292 1328.64 87.7228C1322.75 96.2137 1316.97 103.499 1315.35 113.982L1311.79 114.455C1314.89 92.5229 1310.98 101.472 1324.47 78.9311C1356.56 40.01 1328.72 37.6998 1341.69 15.0221Z" fill="#676767"/>
<path d="M1577.47 24.7681C1610.69 3.98522 1649.66 47.3695 1647.39 72.9726L1648.89 74.0323C1649.32 82.4132 1651 85.6259 1647.1 91.6248L1642.15 93.0235L1644.27 98.4858C1654.53 118.431 1639.01 174.529 1611.38 177.188L1609.61 172.298C1622.82 159.256 1624.66 155.053 1627.87 136.938L1618.5 123.826C1612.46 114.08 1609.97 110.423 1602.47 101.703C1594.24 89.1238 1552.65 76.2213 1537.64 72.3125L1526.26 69.7261C1535.71 69.8294 1549.26 71.3382 1555.95 65.2607C1557.21 58.6758 1556.71 58.7229 1554.06 52.7869C1557.9 48.0879 1551.03 50.2724 1558.49 39.3208C1563.65 34.8733 1571.83 29.0652 1577.47 24.7681Z" fill="#FF5545"/>
<path d="M1577.47 24.7681C1610.69 3.98522 1649.66 47.3695 1647.39 72.9726L1648.89 74.0323C1649.32 82.4132 1651 85.626 1647.1 91.6249L1642.15 93.0235L1639.8 88.5603L1631.78 91.7641C1629.44 84.6875 1628.25 82.9857 1623.49 77.2293C1617.94 76.4952 1616.86 76.8992 1612.48 73.4215L1611.92 62.7865C1600.29 48.5526 1590.43 58.8329 1573.83 53.5704C1564.08 34.1975 1574.34 52.4008 1577.47 24.7681Z" fill="#FF5545"/>
<path d="M1611.92 62.7865C1623.58 68.5519 1628.16 73.0085 1639.82 78.2777C1642.33 84.7369 1642.11 81.4276 1639.8 88.5603L1631.78 91.7641C1629.44 84.6875 1628.25 82.9857 1623.49 77.2293C1617.94 76.4952 1616.86 76.8992 1612.48 73.4215L1611.92 62.7865Z" fill="#FF5545"/>
<path d="M1537.64 72.3125C1571.87 70.5681 1606.85 86.4836 1630 111.492C1632.23 120.394 1633.87 124.172 1631.24 133.179L1627.87 136.938L1618.5 123.826C1612.46 114.08 1609.97 110.423 1602.47 101.703C1594.25 89.1238 1552.65 76.2213 1537.64 72.3125Z" fill="#FF5545"/>
<path d="M1573.83 53.5704C1590.43 58.8329 1600.29 48.5526 1611.92 62.7865L1612.48 73.4215C1616.86 76.8992 1617.94 76.4952 1623.49 77.2293C1614.5 79.0097 1609.45 80.6037 1600.31 78.8144C1593.95 70.3189 1605.21 71.3426 1604.71 60.0251C1591.75 60.3214 1587.91 60.7413 1575.22 57.6139L1573.83 53.5704Z" fill="#FF5545"/>
<path d="M1546.43 -48.8824L1559.68 -45.4227C1570.71 -33.7482 1595.14 -30.2593 1611.47 -27.0848C1622.57 -24.1347 1625.98 -24.604 1637.39 -24.9834C1634.85 -15.792 1631.91 -11.2142 1637.82 -2.41115C1660.66 31.6223 1676.72 33.2432 1670.48 79.8761C1672.05 86.7731 1672.23 83.5201 1670.39 90.0151L1666.21 89.7075C1656.78 84.1464 1655.56 82.3234 1648.89 74.0322L1647.39 72.9726C1649.66 47.3695 1610.69 3.98518 1577.47 24.7681C1571.83 29.0652 1563.65 34.8732 1558.49 39.3208L1551.1 34.5791C1550.92 26.4272 1542.83 22.4286 1536.77 18.6187L1552.06 18.329C1545.37 15.3385 1542.34 13.2664 1536.14 9.25215C1543.44 9.92793 1546.36 6.36274 1549.59 0.779182L1540.68 -6.65661C1533.65 -11.9057 1532.07 -9.07678 1525.38 -18.1178C1531.65 -19.0742 1538.36 -21.1128 1546.27 -22.2555C1538.9 -23.5914 1537.24 -23.991 1530.41 -27.0039L1531.47 -29.8328C1537.53 -32.5718 1541.84 -30.4053 1548.54 -28.6429C1553.23 -28.1423 1552.85 -28.387 1557.63 -28.9527L1559.61 -32.6751C1557.16 -39.4733 1551.73 -43.6536 1546.43 -48.8824Z" fill="#FF5545"/>
<path d="M1571.2 -1.24136C1574.77 -7.44457 1576.77 -13.6679 1584.5 -14.9252C1619.74 -20.6592 1671.87 40.0168 1665.47 72.8132L1670.48 79.8762C1672.05 86.7732 1672.23 83.5201 1670.39 90.0152L1666.21 89.7076C1656.78 84.1465 1655.56 82.3235 1648.89 74.0323L1647.39 72.9727C1649.66 47.3696 1610.69 3.98528 1577.47 24.7681C1571.83 29.0653 1563.65 34.8733 1558.49 39.3209L1551.1 34.5792C1550.92 26.4273 1542.83 22.4287 1536.77 18.6188L1552.06 18.3291L1553.52 18.8298C1556.96 21.4364 1559.05 22.1593 1562.96 23.9621C1574.57 19.4158 1576.52 9.33529 1571.2 -1.24136Z" fill="#676767"/>
<path d="M1549.59 0.779297L1561.12 1.05541C1564.17 4.45225 1563.5 3.22188 1565.41 7.29C1561.92 11.0303 1557.68 16.0661 1553.52 18.8298L1552.06 18.3291C1545.37 15.3387 1542.34 13.2665 1536.14 9.25227C1543.44 9.92804 1546.36 6.36286 1549.59 0.779297Z" fill="#FF5545"/>
<path d="M1540.68 -6.65656C1555.32 -10.6775 1557.21 -13.1854 1569.2 -2.23379L1565.41 7.28993C1563.5 3.22181 1564.17 4.45217 1561.12 1.05534L1549.59 0.779226L1540.68 -6.65656Z" fill="#FF5545"/>
<path d="M1450.18 14.8828C1440.93 4.62495 1435.76 -14.4337 1447.28 -25.4526L1450.11 -24.5614C1456.45 5.62844 1474.08 29.9295 1507.41 12.8465C1515.09 7.79058 1526.79 9.11067 1536.14 9.25211C1542.34 13.2663 1545.37 15.3385 1552.06 18.329L1536.77 18.6186C1542.83 22.4286 1550.92 26.4271 1551.1 34.5791L1558.49 39.3207C1551.03 50.2723 1557.9 48.0878 1554.06 52.7868C1556.71 58.7228 1557.21 58.6757 1555.95 65.2606C1549.26 71.3381 1535.71 69.8293 1526.26 69.726C1518.82 69.9573 1502.11 71.9442 1496.88 71.7668L1497.15 65.0697L1488.9 66.015C1475.92 69.5151 1462.02 69.3982 1448.7 68.6506C1442.63 63.1277 1439.33 60.7704 1441.8 52.5466C1453.17 45.3129 1472.82 48.7658 1477.13 39.6305C1474.37 31.0408 1458.31 21.1129 1450.18 14.8828Z" fill="#FF5545"/>
<path d="M1450.18 14.8828C1440.93 4.62495 1435.76 -14.4337 1447.28 -25.4526C1452.22 10.2624 1458.87 22.4128 1495.48 29.999C1493.49 32.83 1487.51 40.908 1486.34 43.5348L1488.88 44.3026C1489.96 51.1703 1489.29 52.789 1495.91 57.9483L1478.44 58.4691C1480.62 60.0744 1487.2 65.1034 1488.9 66.015C1475.92 69.5151 1462.02 69.3982 1448.7 68.6506C1442.63 63.1276 1439.33 60.7704 1441.8 52.5466C1453.17 45.3129 1472.82 48.7658 1477.13 39.6305C1474.37 31.0408 1458.31 21.1129 1450.18 14.8828Z" fill="#FF5545"/>
<path d="M1486.34 43.5349L1488.88 44.3027C1489.96 51.1704 1489.29 52.7892 1495.91 57.9484L1478.44 58.4693C1473.32 58.5613 1473.7 58.4738 1469.32 55.7437L1469.95 53.3393C1475.99 49.1207 1479.83 46.9901 1486.34 43.5349Z" fill="#FF5545"/>
<path d="M1554.06 52.787C1556.71 58.723 1557.21 58.6759 1555.95 65.2608C1549.26 71.3383 1535.71 69.8295 1526.26 69.7262C1518.82 69.9575 1502.11 71.9444 1496.88 71.767L1497.15 65.0699C1511.48 56.1457 1533.58 71.0104 1554.06 52.787Z" fill="#FF5545"/>
<path d="M1488.88 44.3027C1499.55 42.7469 1512.89 41.0742 1522.12 47.0125L1525.07 51.404C1519.38 62.1154 1506.58 59.3179 1495.91 57.9484C1489.29 52.7892 1489.96 51.1705 1488.88 44.3027Z" fill="#FF5545"/>
<path d="M1551.1 34.5792C1542.02 29.8937 1509.21 22.1211 1507.77 19.1688C1519 12.9409 1524.53 15.5161 1536.77 18.6188C1542.83 22.4287 1550.92 26.4273 1551.1 34.5792Z" fill="#2C2C2C"/>
<path d="M1465.54 -59.9417C1501.57 -79.0363 1507.5 -33.4764 1525.38 -18.1177C1532.07 -9.07673 1533.65 -11.9056 1540.68 -6.65656L1549.59 0.779236C1546.36 6.36279 1543.44 9.92799 1536.14 9.25221C1526.8 9.11077 1515.09 7.79068 1507.41 12.8466C1474.08 29.9296 1456.45 5.62854 1450.11 -24.5613C1460.67 -34.6799 1464.4 -46.1389 1463.86 -60.4559L1465.54 -59.9417Z" fill="#FF5545"/>
<path d="M1463.86 -60.4558L1465.54 -59.9417C1475.49 -38.5302 1463.32 -32.8568 1466.22 -0.529613C1480.26 17.842 1485.15 16.1784 1507.41 12.8467C1474.08 29.9296 1456.45 5.6286 1450.11 -24.5612C1460.67 -34.6799 1464.4 -46.1388 1463.86 -60.4558Z" fill="#FF5545"/>
<path d="M1466.22 -0.529663C1492.7 5.23126 1518.3 -2.27187 1536.14 9.25222C1526.8 9.11078 1515.09 7.79069 1507.41 12.8466C1485.15 16.1784 1480.26 17.842 1466.22 -0.529663Z" fill="#FF5545"/>
<path d="M1405.53 -74.1218C1409.59 -80.8661 1408.99 -82.7587 1414.6 -84.649C1416.62 -77.6825 1413.91 -67.9994 1412.54 -60.4065C1415.95 -61.6323 1416.69 -62.1868 1419.88 -63.9268C1422.33 -57.0074 1419.21 -45.3845 1415.88 -39.4081C1401.24 -12.8935 1370.83 -16.8717 1371.16 20.4418C1372.51 27.7316 1374.08 31.8918 1380.46 36.5503C1383.88 39.0312 1387.56 41.1169 1391.42 42.7715C1399.31 44.2757 1401.37 45.304 1408.79 43.1734C1409.62 36.7277 1408.83 38.2453 1403.62 31.0565C1404.52 26.8852 1405.82 26.5888 1409.01 22.8776C1417.59 19.2114 1419.45 19.9052 1429.13 20.3183L1430.75 17.6668C1436.52 17.009 1436.59 16.2637 1441.56 18.2955C1451.75 26.1466 1456.2 30.044 1465.21 39.2175L1461.86 39.1367C1424.01 38.5888 1402.7 69.2098 1363.86 33.3533L1343.27 28.1784L1341.69 15.0221C1345.47 7.13061 1349.29 -0.731735 1353.15 -8.56264C1356.68 -12.2222 1358.27 -14.135 1361.33 -18.028C1368.22 -23.1737 1380.55 -37.6816 1389.65 -45.3082L1391 -46.4307L1389.36 -51.6438L1393.58 -56.0016C1399.85 -62.6291 1401.4 -66.2437 1405.53 -74.1218Z" fill="#676767"/>
<path d="M1361.33 -18.028C1374.13 6.69731 1356.7 8.20823 1363.86 33.3533L1343.27 28.1784L1341.69 15.0222C1345.47 7.13063 1349.29 -0.73171 1353.15 -8.56261C1356.68 -12.2221 1358.27 -14.135 1361.33 -18.028Z" fill="#676767"/>
<path d="M1403.62 31.0565C1404.52 26.8851 1405.82 26.5887 1409.01 22.8776C1417.59 19.2113 1419.45 19.9051 1429.13 20.3182C1435.6 23.2032 1443.11 25.4057 1446.61 31.1688C1440.41 34.404 1412.51 31.2608 1403.62 31.0565Z" fill="#2C2C2C"/>
<path d="M1391.42 42.7716L1387.72 34.8913C1380.12 18.7041 1389.4 14.4655 1390.01 -0.051347L1393.89 -2.7074L1398.9 3.47786L1404.25 12.6604C1413.41 19.692 1418.89 18.2978 1430.75 17.6669L1429.13 20.3184C1419.45 19.9053 1417.59 19.2115 1409.01 22.8777C1405.82 26.5889 1404.52 26.8852 1403.62 31.0566C1408.83 38.2454 1409.62 36.7278 1408.79 43.1735C1401.37 45.3041 1399.31 44.2758 1391.42 42.7716Z" fill="#676767"/>
<path d="M1371.16 20.4417C1375.63 0.413228 1391.69 -15.8031 1413.23 -14.1889L1414.47 -11.8069C1400.92 -10.6529 1405.48 -11.7059 1393.89 -2.70754L1390.01 -0.0514889C1389.4 14.4653 1380.12 18.704 1387.72 34.8911L1391.42 42.7715C1387.56 41.1168 1383.88 39.0311 1380.46 36.5503C1374.08 31.8917 1372.51 27.7316 1371.16 20.4417Z" fill="#676767"/>
<path d="M1398.9 3.47775C1404.63 -3.48429 1401.67 -1.38511 1410.13 -4.47437C1417.99 -2.22029 1414.8 -4.37777 1419.72 2.68531C1420.33 10.3254 1421.34 7.00041 1416.62 13.0038C1408.81 14.3284 1411.03 15.0041 1404.25 12.6603L1398.9 3.47775Z" fill="#FF5545"/>
<path d="M1749 -100.975C1750.62 -109.9 1751.07 -115.441 1755.22 -123.572L1758.86 -123.905L1763.4 -119.064C1766.27 -104.835 1768.77 -90.5245 1770.83 -76.1536L1775.33 -80.5832L1782 -75.2219L1781.39 -83.0303L1782.47 -84.2404C1787.21 -74.2699 1789.66 -66.9082 1793.2 -56.5022L1791.16 -51.6371L1803.47 -50.9165C1806.86 -54.4345 1812.54 -62.674 1816.34 -67.2719C1829.32 -63.9312 1838.08 -62.3215 1846.1 -50.7189C1864.5 10.8934 1850.95 99.559 1819.8 155.783C1817.04 160.819 1813.73 165.538 1809.94 169.853C1798.73 178.335 1788.87 181.26 1775.17 184.556C1766.9 221.452 1755.29 268.296 1732.99 299.395C1725.75 309.018 1717.49 319.21 1712.21 329.913C1711.56 336.394 1708.82 373.465 1707.25 376.591C1707.36 363.538 1707.85 348.606 1706.93 335.766C1701.72 341.592 1671.76 379.792 1670.41 380.333C1646.58 389.785 1634.2 400.402 1619.65 421.037C1616.28 425.83 1573.02 427.029 1565.56 430.704C1555.46 431.49 1460.45 449.235 1453.1 459.906C1450.16 464.188 1452.49 468.698 1450.85 473.056C1445.51 477.982 1440.84 481.015 1439.2 487.786C1436.34 482.651 1435.6 480.137 1429.72 479.93C1427.85 484.887 1428.3 489.836 1428.24 495.201C1418.49 477.564 1430.48 480.822 1430.42 478.022C1430.24 470.474 1424.33 459.895 1427.99 450.416C1469.43 434.723 1521.29 440.538 1563.07 423.598C1560.04 422.833 1539.55 422.615 1532.95 422.031L1535.22 411.87L1542.09 405.267C1517.83 382.336 1469.12 423.578 1454.34 388.972C1449.89 390.443 1440.84 394.475 1437.65 392.978C1426.78 376.961 1430.12 394.269 1416.8 380.376C1413.17 377.046 1409.55 375.773 1405.08 373.703L1402.18 363.76L1398.84 360.408C1392.59 352.007 1364.47 338.487 1353.87 333.305C1356.5 323.678 1352.68 321.494 1345.47 315.374L1347 313.789C1356 317.684 1353.51 315.407 1358.29 323.44C1362.74 330.901 1380.98 336.516 1388.19 342.387C1395.89 348.677 1400.3 356.836 1408.65 360.141C1409.84 355.785 1409.82 354.849 1410.16 350.305C1395.6 335.707 1377.54 335.782 1369.41 316.748L1369.66 310.03C1375.23 312.203 1378.62 324.446 1384.98 329.515C1391.45 334.657 1403.89 333.278 1407.01 339.708C1423.05 372.837 1435.81 360.495 1463.23 375.205L1465.97 372.549C1480.88 379.361 1472.91 372.39 1486.39 374.487C1485.42 377.437 1485.96 376.503 1486.95 380.432C1507.86 368.71 1493.24 379.047 1499.89 363.616C1512.17 355.177 1524.14 355.693 1538.77 354.966C1539.13 348.076 1536.7 338.913 1539.64 334.385C1545.21 345.2 1548.74 350.271 1555.77 360.237C1574.05 359.045 1577.53 359.809 1594.92 365.695C1608.24 364.62 1624.03 334.951 1637.15 328.33C1647.43 330.393 1646.87 338.384 1658.26 344.349C1684.67 333.368 1710.68 295.392 1726.02 283.85L1735.95 286.665C1780.31 237.28 1778.72 68.0468 1776.25 1.47289C1775.39 -21.5281 1768.34 -54.0416 1766.59 -79.263L1760.03 -79.3798C1762.21 -88.6834 1763.87 -92.7471 1762.32 -102.228C1758.14 -108.272 1760.68 -107.183 1755.45 -108.503C1752.39 -97.729 1749.88 -91.4202 1745.65 -81.1309L1741.27 -80.3586C1741.14 -87.058 1740.87 -87.0378 1738.53 -93.4925C1737.07 -97.4932 1735.82 -103.447 1734.78 -107.753L1731.77 -122.551C1737.19 -118.941 1742.31 -114.635 1748.62 -114.058L1749 -100.975Z" fill="#676767"/>
<path d="M1816.34 -67.2719C1829.32 -63.9311 1838.08 -62.3214 1846.1 -50.7188C1864.5 10.8934 1850.95 99.559 1819.8 155.783C1817.04 160.819 1813.73 165.538 1809.94 169.853C1799.29 170.875 1786.6 175.711 1776.18 179.157C1779.77 168.106 1780.45 161.42 1781.97 149.948C1782.11 140.335 1785.25 125.308 1787.01 115.385C1787.68 107.343 1787.3 104.945 1786.4 96.82C1794.53 86.6497 1793.52 88.8141 1805.8 89.6605C1805.33 82.4335 1806.37 74.3107 1802.37 70.1595C1797.45 72.9389 1796.28 74.4431 1792.4 78.3271C1783.57 46.9317 1802.97 48.3125 1792.53 26.6832C1789.68 20.792 1789.48 22.0426 1788.02 14.8471L1791.43 11.7218L1793.72 7.25864C1791.05 2.06798 1791.21 -4.67411 1791.34 -11.039C1791.81 -33.8514 1789.03 -35.0054 1803.47 -50.9164C1806.86 -54.4344 1812.54 -62.6739 1816.34 -67.2719Z" fill="#FF5545"/>
<path d="M1846.1 -50.7189C1864.5 10.8933 1850.95 99.5589 1819.8 155.783C1817.04 160.819 1813.73 165.538 1809.94 169.853C1799.29 170.875 1786.6 175.71 1776.18 179.157C1779.77 168.106 1780.45 161.42 1781.97 149.948C1782.11 140.334 1785.25 125.308 1787.01 115.385C1787.68 107.343 1787.3 104.945 1786.4 96.8199C1787.09 98.2411 1789.61 103.845 1791.32 104.238C1851.09 117.886 1839.29 1.15857 1832.4 -31.5705L1830.92 -36.4311C1824.34 -37.4346 1818.72 -38.0183 1814.77 -42.751C1831.37 -50.1643 1826.76 -50.7324 1846.1 -50.7189Z" fill="#FF5545"/>
<path d="M1781.97 149.948C1782.11 140.334 1785.25 125.308 1787 115.385C1791.97 125.667 1796.93 131.745 1796.26 142.106C1791.32 147.97 1789.79 147.77 1781.97 149.948Z" fill="#FF5545"/>
<path d="M1816.34 -67.2719C1829.32 -63.9311 1838.08 -62.3214 1846.1 -50.7188C1826.76 -50.7322 1831.37 -50.1642 1814.77 -42.7509C1818.72 -38.0182 1824.34 -37.4345 1830.92 -36.4309L1832.4 -31.5704C1825.17 -35.4521 1824.65 -35.1737 1816.16 -34.5743C1799.45 -26.7007 1798.64 -7.50967 1797.99 8.82791L1794.48 12.0295L1791.43 11.7218L1793.72 7.25864C1791.05 2.06798 1791.21 -4.67411 1791.34 -11.039C1791.81 -33.8514 1789.03 -35.0054 1803.47 -50.9164C1806.86 -54.4344 1812.54 -62.6739 1816.34 -67.2719Z" fill="#FF5545"/>
<path d="M1792.4 78.327C1795.76 65.5008 1804.57 51.6059 1819.37 51.9584C1825.64 56.4912 1823.57 53.5075 1825.26 61.527C1823.03 72.0565 1813.67 82.6489 1805.8 89.6604C1805.33 82.4334 1806.37 74.3105 1802.37 70.1593C1797.45 72.9388 1796.28 74.443 1792.4 78.327Z" fill="#FF5545"/>
<path d="M1466.06 387.549C1491.35 394.208 1540.47 396.332 1566.89 390.602C1576.03 388.618 1588.25 379.143 1595.23 386.213C1594.99 395.126 1590.27 400.57 1584.03 406.83L1580.86 406.938C1575.31 412.73 1569.65 420.877 1563.07 423.598C1560.04 422.833 1539.55 422.615 1532.95 422.031L1535.22 411.87L1542.09 405.267C1517.83 382.336 1469.12 423.578 1454.34 388.972L1466.06 387.549Z" fill="#2C2C2C"/>
<path d="M1542.09 405.267C1544.56 404.794 1577.6 405.613 1580.86 406.938C1575.31 412.73 1569.65 420.877 1563.07 423.598C1560.04 422.833 1539.55 422.615 1532.95 422.031L1535.22 411.87L1542.09 405.267Z" fill="#676767"/>
<path d="M1643.37 363.026L1639.91 359.928C1634.2 361.65 1632.86 362.431 1626.79 361.703C1624.07 354.86 1625.02 356.607 1626.21 348.262C1636.88 347.51 1637.57 340.49 1651.03 343.238L1654.69 351.688C1658.78 351.978 1711.6 306.485 1732.99 299.395C1725.75 309.018 1717.49 319.21 1712.21 329.913L1706.17 331.004C1692.8 331.008 1667.2 356.766 1653.83 360.563C1651.03 361.362 1648.42 363.055 1645.86 364.519L1643.37 363.026Z" fill="#FF5545"/>
<path d="M1645.86 364.519C1648.42 363.055 1651.03 361.362 1653.83 360.563C1667.2 356.766 1692.8 331.008 1706.17 331.004C1682.97 359.925 1677.37 358.232 1650.62 379.455L1645.86 364.519Z" fill="#676767"/>
<path d="M1538.77 354.966C1541.35 364.856 1542.25 362.33 1539.4 370.464C1532.52 374.361 1519.38 372.123 1509.57 372.572L1505.46 364.952L1499.89 363.616C1512.17 355.177 1524.14 355.693 1538.77 354.966Z" fill="#FF5545"/>
<path d="M1621.24 378.261L1628.52 370.134C1632.72 374.927 1636.85 379.765 1640.94 384.648C1631.96 391.435 1619.63 403.103 1607.95 400.84L1606.67 402.488C1607.77 399.607 1613.56 394.013 1616.01 391.361L1615.13 386.691C1616.37 383.535 1618.97 381.011 1621.24 378.261Z" fill="#676767"/>
<path d="M1437.29 375.414C1449.62 382.89 1464.71 386.665 1466.06 387.549L1454.34 388.972C1449.89 390.443 1440.84 394.475 1437.65 392.978C1426.78 376.961 1430.12 394.269 1416.8 380.376C1426.22 382.006 1428.89 379.835 1437.29 375.414Z" fill="#676767"/>
<path d="M1615.13 386.691L1607.65 389.3C1596.42 385.142 1602.87 383.315 1596.45 379.285C1594.74 378.214 1586.65 383.84 1580.43 380.472L1582.3 376.721C1591.75 372.437 1612.82 371.523 1621.24 378.261C1618.97 381.011 1616.37 383.535 1615.13 386.691Z" fill="#676767"/>
<path d="M1402.18 363.76C1409.08 365.738 1433.83 374.736 1437.29 375.414C1428.89 379.835 1426.21 382.006 1416.8 380.376C1413.17 377.047 1409.55 375.773 1405.08 373.703L1402.18 363.76Z" fill="#676767"/>
<path d="M1643.37 363.026L1645.86 364.519L1650.62 379.455C1649 380.344 1642.18 384.244 1640.94 384.648C1636.85 379.765 1632.72 374.927 1628.52 370.134C1633.33 365.32 1636.61 365.069 1643.37 363.026Z" fill="#676767"/>
<path d="M1492.79 232.267L1493.01 232.579L1494.74 232.702L1490.32 225.855L1493.67 221.436L1499.84 222.013C1505.43 217.763 1508.44 217.817 1511.41 211.711C1512.73 214.295 1511.27 216.084 1510.06 219.916L1513.41 224.514C1513.84 225.415 1519.56 238.472 1519.36 238.183C1524.8 244.419 1529.18 247.062 1526.5 255.986C1523.09 255.809 1521.49 255.36 1518.13 254.706L1515.3 247.612C1501.41 243.732 1485.4 245.106 1471.45 248.158C1469.92 249.693 1467.18 252.239 1465.95 253.835C1460.94 254.648 1459.95 255.997 1455.82 259.01C1423.7 260.348 1435.47 279.234 1432.71 302.639C1430.37 301.995 1430.21 301.375 1428.1 299.674C1427.81 295.848 1427.43 290.918 1426.93 284.883C1421.39 276.396 1408.4 263.503 1408.54 252.762L1411.14 253.24C1413.86 257.001 1412.54 255.93 1416.67 258.081L1416.83 233.973L1419.57 233.136L1422.19 231.919C1425.16 227.018 1424.89 227.298 1429.56 223.951C1432.3 225.574 1435.09 227.157 1437.87 228.699C1452.52 222.539 1439.51 222.238 1456.02 215.085L1459.39 220.294C1466.71 235.583 1477.04 228.142 1492.79 232.267Z" fill="#FF5545"/>
<path d="M1422.19 231.919C1425.16 227.018 1424.89 227.298 1429.56 223.951C1432.3 225.574 1435.09 227.157 1437.87 228.699C1452.52 222.539 1439.51 222.238 1456.02 215.085L1459.39 220.294C1466.71 235.583 1477.04 228.142 1492.79 232.267C1484.3 235.046 1437.83 237.226 1422.28 239.157C1420.26 281.212 1430.35 271.601 1432.71 302.639C1430.37 301.995 1430.21 301.375 1428.1 299.674C1427.81 295.848 1427.43 290.918 1426.93 284.883C1421.39 276.396 1408.4 263.503 1408.54 252.762L1411.14 253.24C1413.86 257.001 1412.54 255.93 1416.67 258.081L1416.83 233.973L1419.57 233.136L1422.19 231.919Z" fill="#FF5545"/>
<path d="M1580.86 211.246L1582.36 213.433C1575.65 217.97 1573.65 219.088 1568.17 224.898C1567.02 232.745 1569.29 234.094 1575.04 239.846L1572.73 242.767C1558.11 226.486 1550.65 230.552 1530.21 235.181L1525.83 240.183C1536.88 239.855 1546.52 238.573 1556.74 242.269L1557.54 245.915C1545.71 257.544 1538.03 261.848 1527.51 275.341L1523.52 274.91L1523.4 271.614L1532.81 263.211C1527.02 259.096 1517.54 260.694 1510.04 261.702L1512.98 261.842L1511.66 260.342C1517.81 258.083 1520.12 257.243 1526.5 255.986C1529.18 247.062 1524.8 244.42 1519.36 238.183C1519.56 238.472 1513.83 225.415 1513.41 224.514C1517.02 202.438 1554.29 221.784 1567.45 218.812C1567.85 218.718 1579.76 211.866 1580.86 211.246Z" fill="#FF5545"/>
<path d="M1345.8 181.422C1377.32 196.904 1367.19 218.908 1412.65 219.434L1415.77 220.7L1421.27 218.251C1422.35 225.909 1422.6 226.306 1419.57 233.136L1416.83 233.973C1412.13 234.115 1411.59 234.285 1407.01 235.399C1408.2 242.071 1408 242.767 1407.21 249.599C1401.98 237.377 1401.62 233.185 1390.03 225.637C1394.01 222.801 1404.7 227.55 1415.46 226.353L1416.02 223.646C1399.71 223.971 1372.71 211.881 1367.57 227.597C1370.49 237.033 1374.91 241.209 1381.16 248.546C1387.96 256.545 1393.15 252.235 1402.59 254.826L1402.47 257.708C1378.17 270.193 1374.58 241.341 1360.36 237.078L1357.71 245.178C1350.05 243.12 1362.94 217.568 1349.98 200.959L1348.54 215.77C1348.46 203.532 1347.2 193.55 1345.8 181.422Z" fill="#676767"/>
<path d="M1305.08 121.199L1306.13 120.982C1318.7 147.912 1316.12 124.83 1330.13 146.533L1329.16 150.655L1324.48 150.038C1330.46 170.513 1329.86 202.753 1326.41 223.883L1325.1 222.114L1325.79 225.372L1326.73 220.774L1324.68 218.174L1324.6 186.675C1315.91 174.256 1316.34 175.922 1312.38 161.89C1306.07 170.284 1309.97 174.756 1314.27 183.853L1312.84 186.429L1308.64 183.196L1307.99 178.189C1305.96 159.593 1302.33 162.393 1301.83 138.168C1296.38 131.379 1299.41 128.635 1302.5 122.16L1305.08 121.199Z" fill="#FF5545"/>
<path d="M1305.08 121.199L1306.13 120.982C1318.7 147.912 1316.12 124.83 1330.13 146.533L1329.16 150.655L1324.48 150.038L1320.59 149.317C1315.01 154.533 1315.4 154.4 1308.03 156.189L1306.52 154.03C1311.92 144.602 1308.85 144.861 1301.83 138.168C1296.38 131.379 1299.41 128.635 1302.5 122.16L1305.08 121.199Z" fill="#FF5545"/>
<path d="M1253.44 159.584C1253.31 149.142 1253.03 138.702 1252.61 128.269C1261.26 146.033 1271.74 181.283 1292.73 188.341C1299.84 194.405 1305.35 212.645 1300.49 221.109L1302.15 219.849L1299.88 220.969C1296 212.265 1299.12 200.449 1287 190.205L1282.71 190.187C1281.95 204.217 1290.9 226.926 1306.56 229.063C1313.66 221.827 1304.8 222.004 1313.05 221.239C1314.11 228.751 1314.55 225.691 1310.16 232.949C1303.84 234.182 1292.96 226.863 1288.3 222.568C1287.08 221.665 1255.34 164.66 1253.44 159.584Z" fill="#FF5545"/>
<path d="M1281.14 170.104C1279.06 147.027 1261.89 144.793 1277.69 112.729L1280.99 114.285C1298 126.586 1296.08 111.299 1302.5 122.16C1299.41 128.635 1296.38 131.379 1301.83 138.168C1302.33 162.393 1305.96 159.593 1307.99 178.189C1306.28 173.802 1305.23 171.62 1303.15 167.523L1299.68 167.52L1296.69 172.255L1300.82 179.431L1300.1 181.386L1291.46 177.538C1290.31 168.897 1290.74 171.584 1297.14 162.087C1295.76 153.52 1288.63 148.608 1282.06 142.175L1283.74 135.132L1280.31 131.127L1278.37 134.367C1278.42 145.871 1282.01 161.703 1281.14 170.104Z" fill="#FF5545"/>
<path d="M1465.97 372.549C1464.58 365.489 1462.2 363.239 1457.75 357.581C1455.23 345.698 1462.58 349.385 1459.95 335.878C1467.36 339.468 1467.59 339.798 1473.2 345.994L1473.76 348.132C1475.79 355.875 1475.72 356.742 1480.26 362.988L1488.54 363.96C1490.21 369.826 1490.03 367.523 1486.39 374.487C1472.91 372.39 1480.88 379.361 1465.97 372.549Z" fill="#FF5545"/>
<path d="M1465.95 253.835C1467.18 252.239 1469.92 249.693 1471.45 248.158C1485.4 245.106 1501.41 243.732 1515.3 247.612L1511.23 253.678C1488.79 257.086 1486.61 262.508 1465.95 253.835Z" fill="#FF5545"/>
<path d="M1698.51 -16.1399C1715.11 -18.5534 1717.53 15.7809 1714.16 27.0086L1711.15 25.6705C1712.84 15.2039 1709.6 -2.35951 1704.87 -11.0346L1701.11 -10.0018C1706.57 4.8967 1701.05 9.13545 1694.35 23.3469C1691.61 29.0068 1689.77 28.6566 1683.39 32.7135C1680.16 40.1515 1684.92 37.0038 1686.13 46.9047C1678.86 40.5443 1660.15 15.2623 1661.4 5.85985C1669.98 -5.08725 1685.68 -11.6407 1698.51 -16.1399Z" fill="#FF5545"/>
<path d="M1728.27 30.3853L1731.75 33.9954C1735.28 42.7064 1733.66 48.8804 1732.47 58.1011C1728.29 48.8243 1727.84 40.3198 1728.27 30.3853Z" fill="#FF5545"/>
<path d="M1565.56 430.704C1573.02 427.029 1616.28 425.83 1619.65 421.037C1634.2 400.402 1646.58 389.785 1670.41 380.333C1671.76 379.792 1701.72 341.592 1706.93 335.766C1707.85 348.606 1707.36 363.538 1707.25 376.591C1704.93 399.039 1697.99 444.078 1700.8 463.651C1699.92 472.899 1697.83 489.337 1697.61 498.044C1691.82 548.832 1696.35 575.547 1697.03 623.926C1626.63 751.702 1365.44 710.841 1247.85 683.76C1258.98 681.246 1265.63 686.163 1271.08 683.419C1268.37 676.123 1266.8 675.557 1260.56 670.324C1255.5 673.588 1255.56 673.788 1249.46 675.442L1245.71 672.243C1242.98 664.255 1241.6 664.89 1244.11 659.242L1253.14 658.963L1254.39 655.571C1250.99 651.106 1250.86 651.364 1249.33 646.05L1252.43 640.65C1253.8 646.389 1253.54 647.132 1257.2 651.907L1261.54 649.476C1271.36 650.43 1260.48 653.968 1273.7 659.969L1280.44 656.889C1279.84 648.827 1275.86 642.514 1272.2 635.132C1280.29 616.506 1274.17 586.777 1273.95 566.488C1273.94 565.163 1263.32 555.013 1261.87 553.617L1265.06 551.116L1270.08 553.978L1270.61 555.534L1271.84 553.329L1270.21 552.503C1275.21 549.582 1272.92 551.284 1276.06 544.948C1273.63 538.673 1272.25 539.297 1265.87 534.417C1279.86 539.396 1285.01 541.45 1297.83 548.736L1301.16 546.854C1290.34 535.663 1296.51 519.309 1286.36 508.019C1284.47 505.92 1286.13 504.049 1287.21 501.239C1299.72 494.083 1321.34 501.411 1342.39 499.615L1343.29 502.592C1338.1 511.207 1337.31 509.202 1339.02 516.276C1345.78 520.178 1347.11 519.866 1355.13 520.659C1359.46 523.636 1366.83 528.368 1370.38 531.873C1389.83 540.036 1420.4 562.884 1439.51 562.676C1443.26 559.804 1446.29 558.32 1447.44 553.909L1444.68 545.808L1443.4 544.046C1448.41 544.317 1451.95 544.944 1456.72 543.363C1461.41 521.298 1451.82 527.221 1450.99 517.592L1461.79 516.775L1464.53 522.017L1468.89 521.932L1469.7 518.31C1450.92 512.037 1440.68 509.599 1439.2 487.786C1440.84 481.015 1445.51 477.982 1450.85 473.056C1452.49 468.698 1450.16 464.188 1453.1 459.906C1460.45 449.235 1555.46 431.49 1565.56 430.704Z" fill="#FF5545"/>
<path d="M1450.85 473.056C1452.49 468.698 1450.16 464.188 1453.1 459.906C1460.45 449.235 1555.46 431.49 1565.56 430.704L1549.48 438.957C1539.8 439.13 1529.76 444.565 1523.54 444.572C1494.16 444.601 1425.5 475.175 1470.55 506.914C1486.21 517.933 1490.32 514.015 1490.66 537.086C1494.9 542.202 1498.02 542.07 1504.6 543.482C1485.85 550.101 1470.42 537.236 1459.97 522.749L1464.53 522.017L1468.89 521.931L1469.7 518.31C1450.92 512.037 1440.68 509.599 1439.2 487.786C1440.84 481.015 1445.51 477.982 1450.85 473.056Z" fill="#FF5545"/>
<path d="M1439.2 487.786C1440.84 481.015 1445.51 477.982 1450.85 473.056C1458 493.506 1450.18 502.657 1469.7 518.31C1450.92 512.037 1440.68 509.599 1439.2 487.786Z" fill="#676767"/>
<path d="M1370.38 531.873C1389.83 540.036 1420.4 562.884 1439.51 562.676C1443.26 559.804 1446.29 558.32 1447.44 553.909C1452.92 557.532 1456.47 563.859 1455.57 570.39C1429.88 592.897 1380.78 559.64 1370.38 531.873Z" fill="#676767"/>
<path d="M1444.68 545.808L1443.4 544.046C1448.41 544.317 1451.95 544.944 1456.72 543.363C1461.41 521.298 1451.82 527.221 1450.99 517.592L1461.79 516.775L1464.53 522.017L1459.97 522.749C1470.42 537.236 1485.85 550.101 1504.6 543.482L1505.93 549.557C1495.35 555.5 1464.53 551.966 1453.21 548.695C1450.32 547.871 1447.46 546.906 1444.68 545.808Z" fill="#676767"/>
<path d="M1597.21 436.454C1580.68 447.04 1575.78 446.689 1556.74 450.953C1550.45 451.247 1520.08 453.82 1517.2 452.163C1524.86 449.981 1545.15 445.304 1549.48 438.957C1567.88 437.419 1578.54 436.22 1597.21 436.454Z" fill="#FF5545"/>
<path d="M1408.31 582.251C1419.05 589.417 1418.02 603.103 1421.45 612.788C1422.04 614.472 1438.23 627.276 1441.06 629.526L1440.39 631.129C1434.03 629.211 1423.61 620.518 1417.79 616.165C1414.67 614.531 1391.8 596.711 1386.64 593.074C1384.39 591.496 1385.61 589.588 1386.35 586.436L1388.21 591.404C1394.66 597.634 1404.02 598.442 1410.45 591.781L1408.31 582.251Z" fill="#FF5545"/>
<path d="M1123.06 -32.9849L1125.04 -31.7702L1127.58 -32.5112C1127.71 -25.3403 1127.02 -9.097 1130.29 -3.93103L1129.29 8.26655C1135.68 25.1991 1130.02 62.5239 1113.9 71.8747L1112.32 74.7215L1111.31 87.413C1108.68 99.1908 1106.48 108.735 1116.15 117.953L1112.09 122.573L1113.97 129.827C1112.65 134.275 1112.28 134.383 1112.03 138.907C1119.14 148.74 1119.5 147.106 1119.02 157.543C1111.92 166.955 1104.28 165.713 1092.93 165.805L1086.14 165.731C1078.11 161.721 1077.86 159.979 1073.04 151.854C1063.26 151.982 1056.67 139.333 1051.44 132.019L1046.02 132.304C1013.52 105.188 1011.17 76.6388 1015.46 37.976C1018.67 5.76334 1019.97 -16.4273 1057.52 -21.3171L1061.07 -20.8344C1079.37 -22.031 1074.66 -23.0053 1087.71 -13.4277C1095.17 -14.3842 1108.94 -24.4534 1117.81 -26.5481C1121.23 -27.3563 1120.64 -28.5485 1123.06 -32.9849Z" fill="#676767"/>
<path d="M1123.06 -32.9849L1125.04 -31.7702L1127.58 -32.5112C1127.71 -25.3403 1127.02 -9.097 1130.29 -3.93103L1129.29 8.26655C1135.68 25.1991 1130.02 62.5239 1113.9 71.8747L1112.39 68.8954C1106.32 60.1216 1105.63 54.6728 1097.63 51.8978C1084.08 41.164 1078.48 32.2331 1068.48 18.4122C1064.64 14.1174 1057.64 9.85617 1052.7 6.50873L1049.1 7.20237L1046.37 8.13418C1046.92 0.673717 1047.9 3.84819 1043.99 -1.89477C1027.48 -3.14528 1019.52 24.2562 1017.97 37.17L1015.46 37.976C1018.67 5.76334 1019.97 -16.4273 1057.52 -21.3171L1061.07 -20.8344C1079.37 -22.031 1074.66 -23.0053 1087.71 -13.4277C1095.17 -14.3842 1108.94 -24.4534 1117.81 -26.5481C1121.23 -27.3563 1120.64 -28.5486 1123.06 -32.9849Z" fill="#676767"/>
<path d="M1123.06 -32.9849L1125.05 -31.7702C1125.39 -21.692 1126.38 -13.7085 1122.71 -4.21619C1117.49 0.161751 1120.23 -0.462364 1114.8 -0.545433L1112.1 -3.09364C1087.09 -13.6254 1088.58 3.14329 1061.07 -20.8344C1079.37 -22.031 1074.66 -23.0053 1087.71 -13.4277C1095.17 -14.3842 1108.94 -24.4534 1117.81 -26.5481C1121.23 -27.3563 1120.64 -28.5486 1123.06 -32.9849Z" fill="#2C2C2C"/>
<path d="M1125.04 -31.7703L1127.58 -32.5112C1127.71 -25.3404 1127.02 -9.09708 1130.29 -3.93111L1129.29 8.26647C1123.18 30.8387 1127.69 31.5819 1114.67 57.3736C1116.06 28.7262 1120.4 26.6404 1112.1 -3.09372L1114.8 -0.545511C1120.23 -0.462444 1117.49 0.161671 1122.71 -4.21627C1126.38 -13.7085 1125.39 -21.6921 1125.04 -31.7703Z" fill="#2C2C2C"/>
<path d="M1015.46 37.9761L1017.97 37.1701C1019.52 24.2563 1027.48 -3.14516 1043.99 -1.89464C1047.9 3.84832 1046.92 0.673843 1046.37 8.1343L1049.1 7.2025C1049.45 19.6044 1048.54 51.3434 1048 64.4413C1047.55 68.6845 1047 75.8823 1046.02 79.7237C1046.05 100.356 1050.72 116.37 1064.96 131.33L1068.7 132.654C1066.3 148.567 1072.29 140.534 1073.04 151.854C1063.26 151.982 1056.67 139.333 1051.44 132.019L1046.02 132.304C1013.52 105.188 1011.17 76.639 1015.46 37.9761Z" fill="#676767"/>
<path d="M1049.1 7.20239C1049.45 19.6043 1048.54 51.3433 1048 64.4412C1047.55 68.6844 1047 75.8822 1046.02 79.7236L1032.85 78.9108L1029.38 81.6634C1019.52 64.6725 1023.71 29.2853 1039.81 15.927C1044.07 12.3887 1043.9 13.271 1046.37 8.1342L1049.1 7.20239Z" fill="#676767"/>
<path d="M1032.85 78.9108C1030.66 71.52 1028.98 58.0988 1033.04 51.3074C1041.85 54.2664 1038.61 60.3887 1048 64.4411C1047.55 68.6844 1047 75.8822 1046.02 79.7235L1032.85 78.9108Z" fill="#676767"/>
<path d="M1097.63 51.8979C1105.63 54.6729 1106.32 60.1217 1112.4 68.8956L1113.9 71.8749L1112.32 74.7217L1111.31 87.4131C1108.68 99.1909 1106.48 108.735 1116.15 117.953L1112.09 122.574L1113.97 129.828C1112.65 134.275 1112.28 134.383 1112.03 138.907C1109.75 132.84 1108.75 130.806 1105.58 125.146C1097.98 122.149 1100.78 122.899 1091.74 124.581C1061.78 126.898 1040.64 76.8656 1083.74 57.6184L1085.24 58.5524L1090.06 58.5255L1097.63 51.8979Z" fill="#676767"/>
<path d="M1097.63 51.8979C1105.63 54.6729 1106.32 60.1217 1112.4 68.8956L1113.9 71.8749L1112.32 74.7217L1111.31 87.4131C1107.14 91.58 1108.39 93.9755 1101.7 97.2646C1078.47 96.3059 1073.8 75.9025 1085.24 58.5524L1090.06 58.5255L1097.63 51.8979Z" fill="#676767"/>
<path d="M1097.63 51.8979C1105.63 54.6729 1106.32 60.1217 1112.39 68.8956C1109.09 73.4913 1105.99 75.8688 1100.64 77.2922C1093.26 71.4998 1093.91 68.377 1090.06 58.5255L1097.63 51.8979Z" fill="#2C2C2C"/>
<path d="M1068.48 18.4122C1078.48 32.2331 1084.08 41.164 1097.63 51.8978L1090.06 58.5254L1085.24 58.5523L1083.74 57.6183L1086.86 51.1794C1082.87 39.9831 1077.61 51.6082 1065.74 40.2817C1063.84 32.5922 1066.45 26.3195 1068.48 18.4122Z" fill="#676767"/>
<path d="M1068.7 132.654C1074.47 135.575 1084.39 140.171 1089.17 143.929C1088.74 151.966 1089 158.23 1086.14 165.731C1078.11 161.721 1077.86 159.979 1073.04 151.854C1072.29 140.534 1066.3 148.567 1068.7 132.654Z" fill="#676767"/>
<path d="M1342.41 -17.8282L1346.01 -18.5242C1351.08 -14.2675 1350.77 -14.3528 1353.15 -8.56264C1349.29 -0.731741 1345.47 7.1306 1341.69 15.0221C1328.72 37.6999 1356.56 40.0101 1324.47 78.9311C1310.98 101.472 1314.89 92.5229 1311.79 114.455L1306.13 120.982L1305.08 121.199L1302.5 122.16C1296.08 111.299 1298 126.586 1280.99 114.285L1277.69 112.729C1261.89 144.793 1279.06 147.027 1281.14 170.104L1279.5 173.201L1292.73 188.341C1271.74 181.283 1261.26 146.033 1252.61 128.269C1253.03 138.702 1253.31 149.142 1253.44 159.584C1234.1 133.357 1247.05 125.559 1246.24 97.5272C1246.1 92.7743 1236.25 74.8202 1236.55 69.1536C1237.09 58.9002 1242.19 55.3912 1237.72 45.6968C1233.22 51.9696 1234.64 55.9659 1234.34 64.843L1231.9 66.7267L1227.54 64.7218C1222.07 57.3399 1220.66 44.0938 1216.96 32.7987C1221.25 23.4973 1220.46 17.6062 1215.98 8.47319L1212.01 7.60209C1208.13 10.3927 1204.31 13.2641 1200.55 16.212L1196.15 15.4172C1197.88 5.73632 1198.64 19.0767 1204.15 2.16666L1207.4 1.6121C1212.33 0.433426 1217.82 -0.0941753 1221.12 -3.52693L1214.79 -11.4252L1215.49 -15.7762C1236.42 -11.5038 1260.93 -15.2912 1282.7 -13.6792C1283.94 -12.3479 1285.18 -11.0166 1286.42 -9.68752L1298.83 -9.76385C1307.94 -10.26 1334.08 -15.2598 1342.41 -17.8282Z" fill="#FF5545"/>
<path d="M1342.41 -17.8282L1346.01 -18.5242C1351.08 -14.2675 1350.77 -14.3528 1353.15 -8.56264C1349.29 -0.731741 1345.47 7.1306 1341.69 15.0221C1328.72 37.6999 1356.56 40.0101 1324.47 78.9311C1323.73 72.7481 1323.97 67.9929 1320.15 63.3006C1314.4 60.8557 1313.36 60.4112 1309.36 55.6629L1299.54 63.6509L1297.37 63.3703C1298.14 53.9004 1301.47 50.4048 1302.21 42.3854C1296.99 32.4935 1293.77 34.1279 1287.11 26.279L1288.19 16.3894C1279.17 14.8178 1281.5 16.4814 1275.4 11.0887L1276.42 6.11134C1287.06 -3.96241 1290.95 -1.19431 1298.83 -9.76385C1307.94 -10.26 1334.08 -15.2598 1342.41 -17.8282Z" fill="#FF5545"/>
<path d="M1342.41 -17.8282L1346.01 -18.5242C1351.08 -14.2675 1350.77 -14.3528 1353.15 -8.56264C1349.29 -0.731741 1345.47 7.1306 1341.69 15.0221C1328.72 37.6999 1356.56 40.0101 1324.47 78.9311C1323.73 72.7481 1323.97 67.9929 1320.15 63.3006C1314.4 60.8557 1313.36 60.4112 1309.36 55.6629C1323.17 39.6486 1330.1 32.5676 1336.26 12.6199C1338.01 8.62807 1343.56 -13.5894 1342.41 -17.8282Z" fill="#FF5545"/>
<path d="M1299.54 63.6509L1309.36 55.6628C1313.36 60.4112 1314.4 60.8557 1320.15 63.3006C1323.97 67.9929 1323.73 72.7481 1324.47 78.9311C1310.98 101.472 1314.88 92.5229 1311.79 114.455L1306.13 120.982L1305.08 121.199L1302.5 122.16C1296.08 111.299 1298 126.586 1280.99 114.285C1288.59 106.979 1288.53 107.116 1290.07 98.3511C1285.47 88.0438 1289.14 70.1729 1297.37 63.3702L1299.54 63.6509Z" fill="#FF5545"/>
<path d="M1297.37 63.3702L1299.54 63.6509C1305.4 91.6832 1302.72 81.697 1297.77 104.283C1300.63 110.3 1302.72 114.974 1305.08 121.199L1302.5 122.16C1296.08 111.299 1298 126.586 1280.99 114.285C1288.59 106.979 1288.53 107.116 1290.07 98.3511C1285.47 88.0439 1289.14 70.1729 1297.37 63.3702Z" fill="#FF5545"/>
<path d="M1215.49 -15.7762C1236.42 -11.5038 1260.93 -15.2913 1282.7 -13.6793C1283.94 -12.3479 1285.18 -11.0167 1286.42 -9.68759C1264.49 -5.11882 1226.2 6.46593 1207.4 1.61203C1212.33 0.433352 1217.82 -0.0942488 1221.12 -3.527L1214.79 -11.4253L1215.49 -15.7762Z" fill="#676767"/>
<path d="M1281.83 32.397L1289.96 35.3065C1294.11 40.6656 1292.86 38.6809 1291.76 47.7893C1283.66 45.0121 1281.87 46.1279 1278.76 40.6162L1281.83 32.397Z" fill="#FF5545"/>
<path d="M1192.08 -169.934C1197.79 -173.656 1203.13 -178.068 1209.75 -178.826L1214.26 -170.668L1226.34 -174.062C1234.71 -177.553 1236.33 -177.255 1245.62 -177.841C1246.06 -172.437 1246.95 -174.599 1244.11 -170.836L1246.76 -170.441C1247.27 -160.506 1245.88 -164.027 1251.33 -156.629C1256.88 -154.55 1261.32 -152.691 1267.17 -151.456L1268.82 -146.145C1264.18 -144.867 1262.36 -144.912 1258.56 -142.216C1247.52 -130.777 1245.99 -128.193 1241.36 -112.147C1234.25 -111.956 1222.11 -114.103 1211.93 -114.098C1199.27 -109.341 1209.31 -117.297 1198.43 -109.314C1195.84 -100.648 1195.06 -98.2274 1188.73 -91.757L1184.65 -88.6274C1185.74 -81.8045 1186.71 -77.6892 1188.48 -70.9988L1193.81 -87.626L1200.6 -87.6373L1194.38 -89.0764L1200.75 -87.8326L1202.8 -78.1135C1212.41 -81.3173 1211.63 -87.8258 1226.49 -91.4292C1226.19 -81.4206 1219.05 -69.2993 1212.56 -61.8883C1202.75 -50.6852 1207.58 -47.4343 1213.04 -32.4326C1207.74 -30.6432 1199.49 -30.3783 1196.44 -28.7484C1178.81 -37.282 1165.81 -81.4049 1158.91 -99.9696C1157.59 -90.0822 1153.53 -54.998 1149.79 -48.247C1145.9 -45.5237 1141.23 -43.53 1141.31 -39.4417C1141.51 -28.544 1140.3 12.0855 1136.12 20.7763L1135.24 19.5235C1137.42 -36.8868 1135.12 -58.7294 1146.45 -115.328C1154.59 -115.649 1153.54 -114.239 1157.82 -118.516L1157.27 -133.062C1161.81 -148.875 1153.34 -142.793 1163.93 -157.579L1174.31 -158.441C1175.83 -162.81 1177.45 -162.592 1182.28 -165.85L1192.08 -169.934Z" fill="#676767"/>
<path d="M1333.74 422.552C1320.66 411.625 1277.07 385.432 1275.88 371.438L1279.75 369.294C1291.06 371.566 1303.32 380.407 1313.55 386.653L1315.88 383.382C1315.89 370.542 1309.02 367.078 1296.85 365.913L1285.47 364.714C1286.5 349.629 1267.54 334.726 1256.22 321.554C1282.64 339.926 1274.63 333.114 1291.11 359.131C1313.43 359.615 1308.52 357.694 1320.98 375.729L1324.64 372.606C1331.12 371.348 1329.12 371.829 1336.66 376.781C1345.89 373.881 1339.85 363.118 1343.85 355.417L1354.52 355.72C1367.75 362.341 1390.43 370.881 1405.08 373.703C1409.55 375.773 1413.17 377.046 1416.8 380.376C1430.12 394.269 1426.78 376.961 1437.65 392.978C1440.84 394.475 1449.89 390.443 1454.34 388.972C1469.12 423.578 1517.83 382.336 1542.09 405.267L1535.22 411.87C1529.89 413.574 1506.56 413.615 1498.43 414.03C1488.52 414.537 1473.11 423.758 1463.03 425.992C1454.02 427.988 1457.32 419.081 1446 418.605C1444.72 422.819 1444.72 423.45 1444.34 427.88C1433.22 433.85 1422.01 428.145 1406.7 431.613C1392.61 427.682 1366.38 433.261 1366.09 417.579C1371.3 411.886 1371.3 412.681 1379.27 412.034L1378.8 407.081C1375.34 403.341 1374.2 401.695 1369.7 399.064C1360.97 403.779 1360.74 409.793 1354.54 420.402C1345.56 425.648 1346.16 423.679 1333.74 422.552Z" fill="#2C2C2C"/>
<path d="M1336.66 376.782C1345.89 373.881 1339.85 363.118 1343.85 355.417L1354.52 355.72C1367.75 362.341 1390.43 370.881 1405.08 373.703C1409.55 375.773 1413.17 377.047 1416.8 380.376C1430.12 394.269 1426.78 376.961 1437.65 392.978C1395.49 396.543 1374.4 358.581 1347.08 369.678C1344.03 374.11 1342.73 375.823 1339.2 379.846L1336.66 376.782Z" fill="#2C2C2C"/>
<path d="M1130.29 -3.93107C1144.13 -28.6698 1114.54 -85.8951 1146.45 -115.328C1135.12 -58.7294 1137.42 -36.8868 1135.24 19.5235L1136.12 20.7762C1139.2 50.7528 1125.72 51.0941 1143.91 81.0056C1143.07 85.0378 1140.66 93.2166 1141.74 96.3844C1151.06 130.928 1164.67 204.32 1161.01 238.966L1149.13 209.879C1137.92 212.357 1133.39 213.183 1121.91 213.92L1120.43 210.263L1107.38 202.007C1092.71 188.851 1093.78 184.572 1092.93 165.805C1104.28 165.713 1111.92 166.955 1119.02 157.543C1119.5 147.106 1119.14 148.74 1112.03 138.907C1112.28 134.383 1112.65 134.275 1113.97 129.827L1112.09 122.573L1116.15 117.953C1106.48 108.735 1108.68 99.1907 1111.31 87.4129L1112.32 74.7215L1113.9 71.8747C1130.02 62.5239 1135.68 25.1991 1129.29 8.26652L1130.29 -3.93107Z" fill="#676767"/>
<path d="M1113.97 129.828C1121.02 135.871 1121.55 136.812 1130.16 139.524C1131.86 149.78 1137.04 169.525 1132.66 178.153C1139.29 193.795 1131.22 199.41 1120.43 210.263L1107.38 202.007C1092.71 188.851 1093.78 184.572 1092.93 165.805C1104.28 165.713 1111.92 166.955 1119.02 157.543C1119.5 147.106 1119.14 148.74 1112.03 138.907C1112.28 134.383 1112.65 134.275 1113.97 129.828Z" fill="#676767"/>
<path d="M1107.38 202.007C1108.04 193.606 1107.73 187.735 1111.65 180.34C1120.17 175.704 1122.32 177.118 1132.66 178.153C1139.29 193.795 1131.22 199.41 1120.43 210.263L1107.38 202.007Z" fill="#676767"/>
<path d="M1112.32 74.7216C1120.17 75.669 1116.96 74.0795 1122.49 79.223C1123.35 94.6333 1117.31 102.195 1123.6 116.92C1123.68 117.704 1123.76 118.487 1123.83 119.269L1116.15 117.953C1106.48 108.735 1108.68 99.1908 1111.31 87.413L1112.32 74.7216Z" fill="#676767"/>
<path d="M1116.15 117.953L1123.83 119.269C1127.92 127.986 1129.21 130.047 1130.16 139.524C1121.55 136.812 1121.02 135.871 1113.97 129.827L1112.09 122.573L1116.15 117.953Z" fill="#676767"/>
<path d="M1216.96 32.7987C1220.66 44.0938 1222.07 57.3399 1227.54 64.7217L1231.9 66.7266L1234.34 64.843C1234.64 55.9659 1233.22 51.9696 1237.72 45.6968C1242.19 55.3911 1237.09 58.9002 1236.55 69.1536C1236.25 74.8202 1246.1 92.7742 1246.24 97.5271C1247.05 125.559 1234.1 133.357 1253.44 159.584C1255.34 164.66 1287.08 221.665 1288.3 222.568C1291.34 239.388 1312.7 256.267 1325.08 267.773L1323.14 269.396C1315.57 267.315 1313.67 264.264 1307.85 258.471C1309.57 268.074 1324.03 275.471 1322.22 282.133L1316.7 283.123C1324.19 290.118 1329.57 289.115 1334.1 298.468L1333.16 301.851C1327.75 301.063 1325.35 295.495 1321.12 289.943L1319.1 291.515C1324.04 305.973 1336.53 302.951 1342.28 313.173L1333.38 313.126C1341.51 318.166 1347.56 326.134 1353.87 333.305C1303.12 304.898 1266.95 224.074 1234.04 179.482C1231.84 176.494 1230.39 177.745 1226.48 171.256C1239.76 170.544 1231.88 177.848 1242.32 178.959C1241.96 178.396 1223.08 153.929 1224.68 159.622C1222.09 154.245 1216.24 90.1566 1216.7 89.3663C1231.52 63.7295 1213.01 64.504 1216.96 32.7987Z" fill="#FF5545"/>
<path d="M1178.92 393.88C1182.98 414.207 1177.01 426.616 1184.88 441.158C1188.54 447.911 1204.45 470.279 1205.59 475.135C1210.03 494.119 1218.52 575.006 1216.94 592.605L1213.55 594.538L1216.8 595.252L1215.71 596.996L1212.94 594.729C1209.01 599.228 1207.66 601.314 1204.43 606.379C1202.25 603.754 1204.55 584.11 1202.48 575.32C1193.26 582.529 1200.44 588.804 1191.41 597.041L1189.02 595.468C1201.54 570.484 1189.27 518.874 1180.88 492.617C1179.93 486.717 1180.46 476.989 1180.59 470.712C1179.96 460.257 1179.21 449.81 1178.34 439.373C1179.17 426.212 1178.77 407.485 1178.92 393.88Z" fill="#676767"/>
<path d="M1180.59 470.712C1197.97 501.802 1203.38 540.121 1202.48 575.32C1193.26 582.529 1200.44 588.804 1191.41 597.041L1189.02 595.468C1201.54 570.484 1189.27 518.874 1180.88 492.617C1179.93 486.717 1180.46 476.989 1180.59 470.712Z" fill="#2C2C2C"/>
<path d="M1355.49 502.359C1360.25 504.846 1366.54 508.403 1371.41 510.089C1392.41 524.574 1420.33 539.479 1446.63 538.094C1438.7 535.963 1436.01 535.413 1430.24 529.536C1427.72 522.486 1427.25 524.594 1429.47 519.145C1439.85 515.057 1451.37 511.591 1461.79 516.775L1450.99 517.592C1451.82 527.221 1461.41 521.298 1456.72 543.363C1451.95 544.944 1448.41 544.318 1443.4 544.046L1444.68 545.808L1447.44 553.909C1446.29 558.32 1443.26 559.804 1439.51 562.676C1420.4 562.884 1389.83 540.036 1370.38 531.873C1366.83 528.368 1359.46 523.636 1355.13 520.659C1352.99 513.027 1354.12 510.457 1355.49 502.359Z" fill="#676767"/>
<path d="M1406.7 431.613C1422.01 428.145 1433.22 433.85 1444.34 427.88C1444.72 423.45 1444.72 422.819 1446 418.605C1457.32 419.081 1454.02 427.988 1463.03 425.992C1473.11 423.758 1488.52 414.537 1498.43 414.03C1506.56 413.615 1529.89 413.574 1535.22 411.87L1532.95 422.031C1522.55 429.254 1379.83 445.627 1354.77 450.373L1351.69 448.75L1351.33 445.302C1353.64 443.719 1398.03 434.44 1406.7 431.613Z" fill="#2C2C2C"/>
<path d="M1293.08 447.152L1290.6 446.157C1268.55 437.471 1257.76 445.095 1243.75 441.499L1245.12 439.75C1256.68 438.562 1263.64 432.592 1271.99 424.93C1279.87 424.301 1284.28 426.414 1291.74 428.843C1290.86 424.292 1290.07 419.723 1289.4 415.139L1291.92 414.434C1300.11 429.66 1300.17 434.02 1317.27 428.077L1323.01 429.463L1324.16 432.422C1320.74 434.29 1317.47 435.176 1316.14 437.976C1332.93 449.536 1341.42 455.506 1360.79 462.418C1357.28 463.35 1357.71 463.545 1354.16 463.518L1350.18 467.2C1351.11 475.723 1353.49 473.128 1355.04 479.892C1345.54 477.761 1337 467.05 1325.8 462.097C1316.07 457.791 1311.97 456.458 1301.56 453.517L1293.08 447.152Z" fill="#676767"/>
<path d="M1293.08 447.152C1295.12 447.43 1305.51 448.925 1306.52 448.806C1320.35 447.212 1345.67 464.457 1354.16 463.519L1350.18 467.201C1351.11 475.723 1353.49 473.128 1355.04 479.892C1345.54 477.762 1337 467.05 1325.8 462.097C1316.07 457.791 1311.97 456.458 1301.56 453.517L1293.08 447.152Z" fill="#676767"/>
<path d="M1141.74 96.3844C1150.81 112.816 1158.47 129.904 1160.46 148.527C1165.58 196.52 1168.91 244.612 1175.96 292.352C1178.03 306.409 1185.81 343.202 1180.62 353.875C1172.24 319.318 1173.5 284.034 1161.01 238.966C1164.67 204.32 1151.06 130.927 1141.74 96.3844Z" fill="#676767"/>
<path d="M1354.52 355.72L1348.57 348.365C1333.72 347.743 1329.99 359.236 1315.75 362.534C1317.4 355.413 1333.07 346.017 1339.61 343.642L1335.88 336.628L1337.09 333.179C1344.46 343.038 1385.52 358.028 1398.83 360.408L1402.18 363.76L1405.08 373.703C1390.43 370.881 1367.75 362.341 1354.52 355.72Z" fill="#676767"/>
<path d="M1342.39 499.615C1332.17 491.239 1291.2 468.411 1279.03 465.636C1274.62 474.239 1281.95 474.695 1277.47 486.243C1270.71 487.961 1273.36 487.799 1265.99 484.986L1265.02 482.121L1273.91 481.493C1270.26 469.266 1277.23 481.367 1272.58 465.963L1276.19 463.004C1290.91 462.704 1324.2 479.239 1336.03 488.237C1339.4 494.312 1349.26 500.305 1355.49 502.359C1354.12 510.457 1352.99 513.027 1355.13 520.659C1347.11 519.866 1345.78 520.178 1339.02 516.276C1337.31 509.202 1338.1 511.207 1343.29 502.592L1342.39 499.615Z" fill="#676767"/>
<path d="M1336.03 488.237L1338.35 485.839C1340.05 469.381 1315.59 462.812 1302.24 456.512L1301.56 453.517C1311.97 456.458 1316.07 457.791 1325.8 462.098C1337 467.05 1345.54 477.762 1355.04 479.892C1363.89 491.67 1364.72 498.733 1371.41 510.089C1366.54 508.403 1360.25 504.847 1355.49 502.359C1349.26 500.305 1339.4 494.312 1336.03 488.237Z" fill="#676767"/>
<path d="M1214.79 -11.4252C1211.81 -6.02125 1212.05 -5.34317 1206.45 -2.55251C1199.43 -6.02119 1194.75 -8.547 1188.42 -3.02855L1188.45 6.18534L1183.92 4.46561C1183.5 0.410965 1183.99 -2.31012 1184.84 -6.27945C1179.5 -6.47702 1175.51 -6.14025 1170.24 -5.76531L1167.07 -9.23847C1169.01 -11.7575 1171.13 -13.796 1173.55 -15.8458C1169.81 -20.922 1168.66 -21.9569 1166.8 -28.1668C1170.52 -34.4217 1168.77 -32.3293 1175.86 -35.9888C1183.78 -34.0625 1180.89 -35.6363 1186.54 -28.8539C1188.65 -18.1425 1183.29 -28.1556 1178.47 -18.1177C1185.33 -10.8526 1199.74 -2.68498 1208.78 -9.60887L1208.42 -18.3828L1215.49 -15.7762L1214.79 -11.4252Z" fill="#676767"/>
<path d="M1046.02 132.304L1051.44 132.019C1056.67 139.333 1063.26 151.982 1073.04 151.854C1077.86 159.979 1078.11 161.721 1086.14 165.731L1092.93 165.805C1093.78 184.572 1092.71 188.851 1107.38 202.007L1120.43 210.263L1121.91 213.92C1090.68 213.608 1064.96 157.049 1046.02 132.304Z" fill="#676767"/>
</g>
<defs>
<clipPath id="clip0_9_6216">
<rect width="4600" height="3435" fill="white" transform="translate(-917 -1181)"/>
</clipPath>
</defs>
</svg>
